<?xml version="1.0" standalone="no"?>
<!DOCTYPE svg PUBLIC "-//W3C//DTD SVG 1.1//EN" "http://www.w3.org/Graphics/SVG/1.1/DTD/svg11.dtd" >
<svg xmlns="http://www.w3.org/2000/svg">
<metadata>
Created by FontForge 20120731 at Wed Jun 14 16:54:12 2017
 By admin
</metadata>
<defs>
<font id="iconfont" horiz-adv-x="1024" >
  <font-face 
    font-family="iconfont"
    font-weight="500"
    font-stretch="normal"
    units-per-em="1024"
    panose-1="2 0 6 3 0 0 0 0 0 0"
    ascent="896"
    descent="-128"
    x-height="792"
    bbox="0 -698 13876 896"
    underline-thickness="0"
    underline-position="0"
    unicode-range="U+0078-E738"
  />
<missing-glyph 
 />
    <glyph glyph-name=".notdef" 
 />
    <glyph glyph-name=".notdef" 
 />
    <glyph glyph-name=".null" horiz-adv-x="0" 
 />
    <glyph glyph-name="nonmarkingreturn" horiz-adv-x="341" 
 />
    <glyph glyph-name="x" unicode="x" horiz-adv-x="1001" 
d="M281 543q-27 -1 -53 -1h-83q-18 0 -36.5 -6t-32.5 -18.5t-23 -32t-9 -45.5v-76h912v41q0 16 -0.5 30t-0.5 18q0 13 -5 29t-17 29.5t-31.5 22.5t-49.5 9h-133v-97h-438v97zM955 310v-52q0 -23 0.5 -52t0.5 -58t-10.5 -47.5t-26 -30t-33 -16t-31.5 -4.5q-14 -1 -29.5 -0.5
t-29.5 0.5h-32l-45 128h-439l-44 -128h-29h-34q-20 0 -45 1q-25 0 -41 9.5t-25.5 23t-13.5 29.5t-4 30v167h911zM163 247q-12 0 -21 -8.5t-9 -21.5t9 -21.5t21 -8.5q13 0 22 8.5t9 21.5t-9 21.5t-22 8.5zM316 123q-8 -26 -14 -48q-5 -19 -10.5 -37t-7.5 -25t-3 -15t1 -14.5
t9.5 -10.5t21.5 -4h37h67h81h80h64h36q23 0 34 12t2 38q-5 13 -9.5 30.5t-9.5 34.5q-5 19 -11 39h-368zM336 498v228q0 11 2.5 23t10 21.5t20.5 15.5t34 6h188q31 0 51.5 -14.5t20.5 -52.5v-227h-327z" />
    <glyph glyph-name="back_icon" unicode="&#xe656;" 
d="M748 -116v0q-11 0 -20 8l-472 472q-8 8 -8 20t8 20l472 472q9 8 20.5 8t19.5 -8t8 -19.5t-8 -19.5l-453 -453l453 -453q8 -8 8 -19.5t-8 -19.5t-20 -8z" />
    <glyph glyph-name="bankcard_icon" unicode="&#xe657;" 
d="M929 717h-834q-34 0 -58.5 -24t-24.5 -59v-500q0 -35 24.5 -59t58.5 -24h834q34 0 58.5 24t24.5 59v500q0 35 -24.5 59t-58.5 24zM95 662h834q11 0 19 -8t8 -20v-139h-888v139q0 12 8 20t19 8v0zM929 106h-834q-11 0 -19 8t-8 20v306h888v-306q0 -12 -8 -20t-19 -8z
M123 217h56v-55h-56v55zM206 217h56v-55h-56v55zM290 217h55v-55h-55v55zM679 217h222v-55h-222v55z" />
    <glyph glyph-name="bag_icon" unicode="&#xe658;" 
d="M995 517q-25 34 -68 34v0h-830v0q-42 0 -68 -34q-17 -22 -17 -50q0 -11 3 -22l130 -459q13 -45 51.5 -73.5t86.5 -28.5h458q48 0 86.5 28.5t51.5 73.5l130 459q3 11 3 22q0 28 -17 50v0zM955 460l-129 -459q-8 -27 -31.5 -44t-53.5 -17h-458q-30 0 -53.5 17t-31.5 44
l-129 459q-1 4 -1 7q0 9 5 16q9 12 24 12v0h830v0q15 0 24 -12q5 -7 5 -16q0 -3 -1 -7v0zM234 578v0q12 0 20 8.5t8 19.5v0q0 92 73.5 157t176.5 65t176.5 -65t73.5 -157v0q0 -12 8 -20t19.5 -8t20 8t8.5 20v0q0 115 -90 196.5t-216 81.5t-216 -81.5t-90 -196.5v0
q0 -11 8.5 -19.5t19.5 -8.5v0zM179 384v0q0 -23 16 -39.5t39 -16.5t39.5 16.5t16.5 39.5v0q0 23 -16.5 39.5t-39.5 16.5t-39 -16.5t-16 -39.5zM734 384q0 -23 16.5 -39.5t39.5 -16.5t39 16.5t16 39.5t-16 39.5t-39 16.5t-39.5 -16.5t-16.5 -39.5z" />
    <glyph glyph-name="address_icon" unicode="&#xe659;" 
d="M512 884q-98 0 -181 -48.5t-131.5 -131.5t-48.5 -181q0 -54 35 -138.5t79 -159t101 -158.5t82 -117.5t42 -54.5q9 -11 22 -11t22 11q17 21 42 54.5t82 117.5t101 158.5t79 159t35 138.5q0 98 -48.5 181t-131.5 131.5t-181 48.5zM512 -43q-45 60 -92 129t-98 153
t-83.5 160.5t-32.5 123.5q0 126 90 215.5t216 89.5t216 -89.5t90 -215.5q0 -47 -32.5 -123.5t-83.5 -160.5t-98 -153t-92 -129zM512 717q-80 0 -137 -57t-57 -137.5t57 -137.5t137 -57t137 57t57 137.5t-57 137.5t-137 57zM512 384q-57 0 -98 40.5t-41 98t41 98.5t98 41
t98 -41t41 -98.5t-41 -98t-98 -40.5z" />
    <glyph glyph-name="affirm_icon" unicode="&#xe65a;" 
d="M512 884q-136 0 -251 -67t-182 -182t-67 -251t67 -251t182 -182t251 -67t251 67t182 182t67 251t-67 251t-182 182t-251 67zM512 -60q-90 0 -172.5 35t-142 94.5t-94.5 142t-35 172.5t35 172.5t94.5 142t142 94.5t172.5 35t172.5 -35t142 -94.5t94.5 -142t35 -172.5
t-35 -172.5t-94.5 -142t-142 -94.5t-172.5 -35zM770 589l-351 -351l-165 166q-8 8 -19.5 8t-20 -8.5t-8.5 -20t9 -19.5l185 -185q8 -8 19.5 -8t19.5 8l370 371q9 8 9 19.5t-8.5 19.5t-20 8t-19.5 -8z" />
    <glyph glyph-name="add_icon" unicode="&#xe65b;" 
d="M512 896q-104 0 -199 -40.5t-163.5 -109t-109 -163.5t-40.5 -199t40.5 -199t109 -163.5t163.5 -109t199 -40.5t199 40.5t163.5 109t109 163.5t40.5 199t-40.5 199t-109 163.5t-163.5 109t-199 40.5zM512 -71q-92 0 -176.5 36t-145.5 97t-97 145.5t-36 176.5t36 176.5
t97 145.5t145.5 97t176.5 36t176.5 -36t145.5 -97t97 -145.5t36 -176.5t-36 -176.5t-97 -145.5t-145.5 -97t-176.5 -36zM768 412h-228v228q0 12 -8 20t-20 8t-20 -8t-8 -20v-228h-228v0q-12 0 -20 -8t-8 -20t8 -20t20 -8v0h228v-228q0 -12 8 -20t20 -8t20 8t8 20v0v228h228
q12 0 20 8t8 20t-8 20t-20 8v0z" />
    <glyph glyph-name="bar-chart_icon" unicode="&#xe65c;" 
d="M262 273h-222v0q-12 0 -20 -8t-8 -20v0v-333v0q0 -12 8 -20t20 -8v0h222v0q12 0 20 8t8 20v0v333v0q0 12 -8 20t-20 8v0zM234 -60h-166v277h166v-277zM984 606h-222v0q-12 0 -20 -8t-8 -20v0v-666v0q0 -12 8 -20t20 -8v0h222v0q12 0 20 8t8 20v0v666v0q0 12 -8 20t-20 8
v0zM956 -60h-166v611h166v-611zM623 884h-222v0q-12 0 -20 -8t-8 -20v0v-944v0q0 -12 8 -20t20 -8v0h222v0q12 0 20 8t8 20v0v944v0q0 12 -8 20t-20 8v0zM595 -60h-166v888h166v-888z" />
    <glyph glyph-name="camera_icon" unicode="&#xe65d;" 
d="M901 634h-149l-47 107q-12 27 -41 43.5t-64 16.5h-176q-35 0 -64 -16.5t-41 -43.5l-47 -107h-149q-46 0 -78.5 -32.5t-32.5 -78.5v-445q0 -46 32.5 -78.5t78.5 -32.5h778q46 0 78.5 32.5t32.5 78.5v445q0 46 -32.5 78.5t-78.5 32.5zM956 78q0 -23 -16 -39t-39 -16h-778
q-23 0 -39 16t-16 39v445q0 23 16 39t39 16h167v0q18 0 25 17l55 124q5 11 20.5 18.5t33.5 7.5h176q18 0 33.5 -7.5t20.5 -18.5l55 -124q7 -17 25 -17v0h167q23 0 39 -16t16 -39v-445zM512 523q-80 0 -137 -57t-57 -137.5t57 -137.5t137 -57t137 57t57 137.5t-57 137.5
t-137 57zM512 190q-57 0 -98 40.5t-41 98t41 98t98 40.5t98 -40.5t41 -98t-41 -98t-98 -40.5z" />
    <glyph glyph-name="cart_icon" unicode="&#xe65e;" 
d="M984 106h-700v0q-11 0 -18.5 7t-9.5 18l-73 662q-3 27 -20.5 46.5t-43.5 25.5l-72 18q-4 1 -7 1q-12 0 -20 -8t-8 -20q0 -9 6 -16.5t15 -10.5l74 -18q19 -5 21 -24l73 -662q4 -32 27.5 -53t55.5 -21v0h700q12 0 20 8t8 19.5t-8 19.5t-20 8v0zM276 -60q0 -23 16 -39.5
t39 -16.5t39.5 16.5t16.5 39.5t-16.5 39t-39.5 16t-39 -16t-16 -39zM831 -60q0 -23 16.5 -39.5t39.5 -16.5t39.5 16.5t16.5 39.5t-16.5 39t-39.5 16t-39.5 -16t-16.5 -39zM290 662h666l-94 -372q-5 -20 -25 -21l-495 -52q-10 -1 -17 -9t-7 -18q0 -12 8 -20t19 -8h3l495 52
q27 2 47 19.5t27 43.5l93 371q2 7 2 14q0 19 -12 34q-16 21 -44 21v0h-666q-12 0 -20 -8t-8 -19.5t8 -19.5t20 -8v0z" />
    <glyph glyph-name="classify_icon" unicode="&#xe65f;" 
d="M373 884h-250q-46 0 -78.5 -32.5t-32.5 -78.5v-167q0 -46 32.5 -78.5t78.5 -32.5h250q46 0 78.5 32.5t32.5 78.5v167q0 46 -32.5 78.5t-78.5 32.5v0zM429 606q0 -23 -16.5 -39t-39.5 -16h-250q-23 0 -39 16t-16 39v167q0 23 16 39t39 16h250q23 0 39.5 -16t16.5 -39v-167
zM373 440h-250q-46 0 -78.5 -33t-32.5 -79v-333q0 -46 32.5 -78.5t78.5 -32.5h250q46 0 78.5 32.5t32.5 78.5v333q0 46 -32.5 79t-78.5 33v0zM429 -5q0 -23 -16.5 -39t-39.5 -16h-250q-23 0 -39 16t-16 39v333q0 23 16 39.5t39 16.5h250q23 0 39.5 -16.5t16.5 -39.5v-333z
M901 273h-250q-46 0 -78.5 -32.5t-32.5 -78.5v-167q0 -46 32.5 -78.5t78.5 -32.5h250q46 0 78.5 32.5t32.5 78.5v167q0 46 -32.5 78.5t-78.5 32.5zM956 -5q0 -23 -16 -39t-39 -16h-250q-23 0 -39.5 16t-16.5 39v167q0 23 16.5 39t39.5 16h250q23 0 39 -16t16 -39v-167z
M901 884h-250q-46 0 -78.5 -32.5t-32.5 -78.5v-333q0 -46 32.5 -79t78.5 -33h250q46 0 78.5 33t32.5 79v333q0 46 -32.5 78.5t-78.5 32.5zM956 440q0 -23 -16 -39.5t-39 -16.5h-250q-23 0 -39.5 16.5t-16.5 39.5v333q0 23 16.5 39t39.5 16h250q23 0 39 -16t16 -39v-333z" />
    <glyph glyph-name="close_icon" unicode="&#xe660;" 
d="M158 738q-96 -96 -130 -225t0 -258t130 -225t225 -130t258 0t225 130t130 225t0 258t-130 225t-225 130t-258 0t-225 -130zM826 70q-63 -64 -146.5 -97.5t-167.5 -33.5t-167.5 33.5t-146.5 97.5q-86 85 -116 199.5t0 229t115.5 200t200 115.5t229 0t200 -115.5
t115.5 -200t0 -229t-116 -199.5zM669 581l-157 -158l-157 158q-8 8 -19.5 8t-20 -8.5t-8.5 -20t8 -19.5l158 -157l-158 -157q-8 -8 -8 -19.5t8.5 -20t20 -8.5t19.5 8l157 158l157 -158q8 -8 19.5 -8t20 8.5t8.5 20t-8 19.5l-158 157l158 157q8 8 8 19.5t-8.5 20t-20 8.5
t-19.5 -8z" />
    <glyph glyph-name="conversation_icon" unicode="&#xe661;" 
d="M901 842h-778q-46 0 -78.5 -32.5t-32.5 -78.5v-500q0 -46 32.5 -78.5t78.5 -32.5h183l186 -186q8 -8 20 -8t20 8l186 186h183q46 0 78.5 32.5t32.5 78.5v500q0 46 -32.5 78.5t-78.5 32.5zM956 231q0 -23 -16 -39t-39 -16h-195v0q-11 0 -19 -8l-175 -175l-175 175
q-8 8 -19 8v0h-195q-23 0 -39 16t-16 39v500q0 23 16 39.5t39 16.5h778q23 0 39 -16.5t16 -39.5v-500zM234 481q0 -23 16.5 -39t39.5 -16t39 16t16 39t-16 39.5t-39 16.5t-39.5 -16.5t-16.5 -39.5zM456 481v0q0 -23 16.5 -39t39.5 -16t39.5 16t16.5 39v0q0 23 -16.5 39.5
t-39.5 16.5t-39.5 -16.5t-16.5 -39.5zM679 481q0 -23 16 -39t39 -16t39.5 16t16.5 39t-16.5 39.5t-39.5 16.5t-39 -16.5t-16 -39.5z" />
    <glyph glyph-name="copy_icon" unicode="&#xe662;" 
d="M788 11v845v0q0 12 -8 20t-19 8v0h-597v0q-12 0 -20 -8t-8 -20v0v-845v0q0 -11 8 -19.5t20 -8.5v0h597v0q11 0 19 8.5t8 19.5v0v0zM733 39h-541v789h541v-789zM860 785v0q-12 0 -20 -8.5t-8 -19.5v0v-817h-569v0q-11 0 -19 -8.5t-8 -20t8 -19.5t19 -8v0h597v0q12 0 20 8
t8 20v0v845v0q0 11 -8 19.5t-20 8.5v0zM288 406h348q12 0 20 8t8 19.5t-8 19.5t-20 8h-348q-11 0 -19 -8t-8 -19.5t8 -19.5t19 -8zM288 605h348q12 0 20 8t8 19.5t-8 19.5t-20 8h-348q-11 0 -19 -8t-8 -19.5t8 -19.5t19 -8zM288 207h348q12 0 20 8t8 19.5t-8 20t-20 8.5
h-348q-11 0 -19 -8.5t-8 -20t8 -19.5t19 -8z" />
    <glyph glyph-name="edit_icon" unicode="&#xe663;" 
d="M984 328v0q-11 0 -19.5 -8t-8.5 -19v0v-306q0 -23 -16 -39t-39 -16h-778q-23 0 -39 16t-16 39v778q0 23 16 39t39 16h306q11 0 19 8.5t8 20t-8 19.5t-19 8h-306q-46 0 -78.5 -32.5t-32.5 -78.5v-778q0 -46 32.5 -78.5t78.5 -32.5h778q46 0 78.5 32.5t32.5 78.5v306v0
q0 11 -8 19t-20 8v0zM409 281q8 -8 19.5 -8t19.5 8l556 556q8 8 8 19.5t-8 19.5t-19.5 8t-19.5 -8l-556 -556q-8 -8 -8 -19.5t8 -19.5z" />
    <glyph glyph-name="dustbin_icon" unicode="&#xe664;" 
d="M873 773h-169q-10 48 -48.5 79.5t-87.5 31.5h-112q-49 0 -87.5 -31.5t-48.5 -79.5h-169q-58 0 -98.5 -41t-40.5 -98v0q0 -12 8 -20t20 -8v0h111v-611q0 -46 32.5 -78.5t78.5 -32.5h500q46 0 78.5 32.5t32.5 78.5v611h111v0q12 0 20 8t8 20v0q0 57 -40.5 98t-98.5 41z
M456 828h112q26 0 47.5 -15t30.5 -40h-268q9 25 30.5 40t47.5 15v0zM818 -5q0 -23 -16.5 -39t-39.5 -16h-500q-23 0 -39.5 16t-16.5 39v611h612v-611zM873 662h-801q9 25 30.5 40t48.5 15h722q27 0 48.5 -15t30.5 -40h-79zM512 51v0q12 0 20 8t8 19v0v389q0 12 -8 20t-20 8
t-20 -8t-8 -20v-389v0q0 -11 8 -19t20 -8v0zM345 51v0q12 0 20 8t8 19v0v389q0 12 -8 20t-19.5 8t-19.5 -8t-8 -20v-389v0q0 -11 8 -19t19 -8v0zM679 51v0q11 0 19 8t8 19v0v389q0 12 -8 20t-19.5 8t-19.5 -8t-8 -20v0v-389v0q0 -11 8 -19t20 -8v0z" />
    <glyph glyph-name="discount-coupon_icon" unicode="&#xe665;" 
d="M989 568l-55 55q-8 8 -19.5 8t-19.5 -8q-21 -21 -56 -17q-39 4 -70 35t-35 70q-4 35 17 56q8 8 8 19.5t-8 19.5l-55 55q-23 23 -56 23t-56 -23l-549 -549q-23 -23 -23 -56t23 -56l55 -55q8 -8 19.5 -8t19.5 8q21 21 56 17q39 -4 70 -35t35 -70q4 -35 -17 -56
q-8 -8 -8 -19.5t8 -19.5l55 -55q23 -23 56 -23t56 23l549 549q23 23 23 56t-23 56zM949 495l-548 -548q-7 -7 -17 -7t-17 7l-38 37q21 35 16 79q-6 58 -51 103t-103 51q-44 5 -79 -16l-37 38q-7 7 -7 17t7 17l548 548q7 7 17 7t17 -7l38 -37q-21 -35 -16 -79q6 -58 51 -103
t103 -51q44 -5 79 16l37 -38q7 -7 7 -17t-7 -17zM641 623q-8 8 -19.5 8t-19.5 -8l-329 -329q-9 -8 -9 -20t8.5 -20t19.5 -8q12 0 20 9l329 329q8 8 8 19.5t-8 19.5zM712 513l-329 -329q-9 -8 -9 -20q0 -11 8 -19.5t20 -8.5t20 9l329 329q9 8 9 20t-8.5 20t-19.5 8
q-12 0 -20 -9v0z" />
    <glyph glyph-name="gift_icon" unicode="&#xe666;" 
d="M956 717h-265q15 26 15 56q0 46 -32.5 78.5t-78.5 32.5q-49 0 -83 -38q-34 38 -83 38q-46 0 -78.5 -32.5t-32.5 -78.5q0 -31 15 -56h-265q-23 0 -39.5 -16t-16.5 -39v-167q0 -23 16.5 -39t39.5 -16v-473q0 -34 24 -58.5t59 -24.5h722q35 0 59 24.5t24 58.5v473
q23 0 39.5 16t16.5 39v167q0 23 -16.5 39t-39.5 16zM595 828h1q23 0 39.5 -16t16.5 -39t-16.5 -39.5t-39.5 -16.5h-1h-55v56q0 23 16 39t39 16zM373 773q0 23 16.5 39t39 16t39 -16t16.5 -39v-56h-55q-23 0 -39.5 16.5t-16.5 39.5zM68 662h416v-167h-416v167zM151 -60
q-12 0 -20 8t-8 19v473h361v-500h-333zM901 -33q0 -11 -8 -19t-20 -8h-333v500h361v-473zM956 495h-416v167h416v-167v0z" />
    <glyph glyph-name="line-chart_icon" unicode="&#xe667;" 
d="M984 -60h-916v916q0 12 -8.5 20t-20 8t-19.5 -8t-8 -20v-944v0q0 -12 8 -20t20 -8v0h944q12 0 20 8t8 19.5t-8 20t-20 8.5zM151 176v0q11 0 20 8l251 251l161 -161q8 -8 19.5 -8t19.5 8l271 271q8 8 8 19.5t-8 19.5t-19.5 8t-20.5 -8l-251 -251l-161 161q-8 8 -19.5 8
t-19.5 -8l-271 -271q-8 -8 -8 -19.5t8 -19.5t20 -8v0z" />
    <glyph glyph-name="message_icon" unicode="&#xe668;" 
d="M898 85q-64 51 -99 194q-15 57 -23 126.5t-9 97t-1 42.5q0 82 -47.5 148t-123.5 92q1 7 1 15v0q0 35 -24.5 60t-59.5 25t-59.5 -25t-24.5 -60v0q0 -9 1 -16q-76 -26 -123.5 -91.5t-47.5 -147.5q0 -15 -1 -42.5t-9 -97t-23 -126.5q-35 -143 -99 -194q-10 -9 -10 -22
q0 -10 6 -17.5t15 -9.5q84 -20 207 -31q9 -51 56.5 -86t111.5 -35q63 0 110.5 34.5t56.5 85.5q110 9 208 32q9 2 15 9.5t6 17.5q0 13 -10 21v1zM483 800q0 12 8.5 20t20.5 8t20.5 -8t8.5 -20q0 -3 -1 -5q-9 4 -28 4q-15 0 -30 -2q1 1 1 5v-2zM512 -60q-38 0 -68.5 17
t-40.5 44q62 -4 121 -4q47 0 96 3q-11 -27 -40.5 -43.5t-67.5 -16.5v0zM199 81q51 65 80 184q34 137 34 280q0 82 58.5 140.5t140.5 58.5t140.5 -58.5t58.5 -140.5q0 -143 34 -280q29 -119 80 -185q-92 -18 -191 -24t-184 -1.5t-142.5 11t-108.5 15.5v0z" />
    <glyph glyph-name="love_icon" unicode="&#xe669;" 
d="M512 -42v0q-12 0 -20 8l-405 405q-75 75 -75 182t75 182t181.5 75t182.5 -75l61 -61l61 61q75 75 182 75t182 -75t75 -182t-75 -182l-405 -405q-8 -8 -20 -8v0v0zM269 755h-1q-83 0 -142 -59q-58 -59 -58 -143v-1q0 -83 58 -141l386 -386l386 386q58 58 58 141v1
q0 84 -58.5 142.5t-142.5 58.5h-1q-83 0 -141 -58l-81 -81q-8 -9 -20 -9t-20 9l-81 81q-58 59 -142 59v0v0z" />
    <glyph glyph-name="home_icon" unicode="&#xe66a;" 
d="M1001 525l-472 354h-1.5t-0.5 1q-5 3 -11 3q2 0 0.5 0.5t-3.5 0.5v0h1h-2q-5 0 -10 -2q-6 -2 -10 -6l3 3l-472 -354q-11 -9 -11 -23q0 -12 8 -20t19 -8q10 0 17 6l456 342l456 -342q7 -5 16 -5q11 0 19 8t8 20q0 13 -10 22v0zM929 440v0q-12 0 -20 -8t-8 -20v0v-472h-250
v139q0 57 -41 98t-98 41t-98 -41t-41 -98v-139h-250v472v1q0 11 -8 19t-19.5 8t-19.5 -8t-8 -19v-1v-500v0q0 -12 8 -20t19 -8v0h306v0q11 0 19.5 8t8.5 20v0v167v0q0 34 24 58.5t59 24.5t59 -24.5t24 -58.5v0v-167v0q0 -12 8.5 -20t19.5 -8v0h306v0q11 0 19 8t8 20v0v500v0
q0 12 -8 20t-19 8v0z" />
    <glyph glyph-name="more_icon" unicode="&#xe66b;" 
d="M137 509q-52 0 -88.5 -36.5t-36.5 -88.5t36.5 -88.5t88.5 -36.5t88.5 36.5t36.5 88.5t-36.5 88.5t-88.5 36.5v0zM137 315q-29 0 -49 20t-20 49t20 49t49 20t49 -20t20 -49t-20 -49t-49 -20v0zM512 509q-52 0 -88.5 -36.5t-36.5 -88.5t36.5 -88.5t88.5 -36.5t88.5 36.5
t36.5 88.5t-36.5 88.5t-88.5 36.5v0zM512 315q-29 0 -49 20t-20 49t20 49t49 20t49 -20t20 -49t-20 -49t-49 -20zM887 509q-52 0 -88.5 -36.5t-36.5 -88.5t36.5 -88.5t88.5 -36.5t88.5 36.5t36.5 88.5t-36.5 88.5t-88.5 36.5zM887 315q-29 0 -49 20t-20 49t20 49t49 20
t49 -20t20 -49t-20 -49t-49 -20z" />
    <glyph glyph-name="my_icon" unicode="&#xe66c;" 
d="M658 310q72 40 116 111.5t44 156.5q0 127 -90 216.5t-216 89.5t-216 -89.5t-90 -216.5q0 -85 44 -156.5t116 -111.5q-145 -38 -241 -143.5t-113 -251.5v-3q0 -11 7 -19t17 -9q12 -1 21 6t10 19q19 160 143.5 262t301.5 102t301.5 -102t143.5 -262q1 -11 9 -18t18 -7v0h4
q10 1 17 9t7 19v3q-17 146 -113 251.5t-241 143.5zM262 578.5q0 103.5 73.5 176.5t176.5 73t176.5 -73t73.5 -176.5t-73.5 -177t-176.5 -73.5t-176.5 73.5t-73.5 177z" />
    <glyph glyph-name="next_icon" unicode="&#xe66d;" 
d="M276 -116v0q11 0 20 8l472 472q8 8 8 20t-8 20l-472 472q-9 8 -20.5 8t-19.5 -8t-8 -19.5t8 -19.5l453 -453l-453 -453q-8 -8 -8 -19.5t8 -19.5t20 -8z" />
    <glyph glyph-name="password_icon" unicode="&#xe66e;" 
d="M901 551h-83v27q0 127 -90 216.5t-216 89.5t-216 -89.5t-90 -216.5v-27h-83q-46 0 -78.5 -32.5t-32.5 -78.5v-445q0 -46 32.5 -78.5t78.5 -32.5h778q46 0 78.5 32.5t32.5 78.5v445q0 46 -32.5 78.5t-78.5 32.5zM512 828q103 0 176.5 -73t73.5 -177v-27h-500v27
q0 104 73.5 177t176.5 73zM956 -5q0 -23 -16 -39t-39 -16h-778q-23 0 -39 16t-16 39v445q0 23 16 39t39 16h778q23 0 39 -16t16 -39v-445zM512 328v0q-23 0 -39.5 -16t-16.5 -39q0 -32 28 -48v-63v0q0 -12 8 -20t20 -8t20 8t8 20v0v63q28 16 28 48q0 23 -16.5 39t-39.5 16v0
v0z" />
    <glyph glyph-name="phone_icon" unicode="&#xe66f;" 
d="M762 884h-500q-35 0 -59 -24.5t-24 -58.5v-834q0 -34 24 -58.5t59 -24.5h500q35 0 59 24.5t24 58.5v834q0 34 -24 58.5t-59 24.5zM234 801q0 11 8 19t20 8h500q12 0 20 -8t8 -19v-639h-556v639zM790 -33q0 -11 -8 -19t-20 -8h-500q-12 0 -20 8t-8 19v139h556v-139z
M456 23v0q0 -23 16.5 -39.5t39.5 -16.5t39.5 16.5t16.5 39.5v0q0 23 -16.5 39t-39.5 16t-39.5 -16t-16.5 -39z" />
    <glyph glyph-name="picture_icon" unicode="&#xe670;" 
d="M929 745h-834q-34 0 -58.5 -24.5t-24.5 -58.5v-556q0 -34 24.5 -58.5t58.5 -24.5h834q34 0 58.5 24.5t24.5 58.5v556q0 34 -24.5 58.5t-58.5 24.5zM95 690h834q11 0 19 -8.5t8 -19.5v-332q-69 37 -138.5 56t-124.5 21.5t-108.5 -6.5t-89.5 -22t-70 -31t-47 -27t-22 -17
q-42 -30 -84 -43.5t-72.5 -13t-60 10t-44.5 18.5t-27 19v367q0 11 8 19.5t19 8.5v0zM929 78h-834q-11 0 -19 8.5t-8 19.5v123q63 -36 133 -36q95 0 188 67q5 3 8 9q1 0 3 1q11 9 22.5 16.5t44 23.5t65 25.5t82.5 15.5t100 0.5t114 -26.5t128 -59v-160q0 -11 -8 -19.5
t-19 -8.5zM234 412q46 0 78.5 32.5t32.5 78.5t-32.5 78.5t-78.5 32.5t-78.5 -32.5t-32.5 -78.5t32.5 -78.5t78.5 -32.5v0zM234 578q23 0 39.5 -16t16.5 -39t-16.5 -39.5t-39.5 -16.5t-39 16.5t-16 39.5t16 39t39 16v0z" />
    <glyph glyph-name="pie-chart_icon" unicode="&#xe671;" 
d="M512 356h472v0q12 0 20 8t8 20v0q0 102 -39.5 194.5t-106.5 159.5t-159.5 106.5t-194.5 39.5v0q-12 0 -20 -8t-8 -20v0v-472v0q0 -12 8 -20t20 -8v0zM540 828q110 -7 203 -63.5t149.5 -149.5t63.5 -203h-416v416zM992 279q-3 1 -8 1q-20 0 -26 -19
q-45 -144 -164.5 -232.5t-270.5 -88.5q-93 0 -177 36t-145 97t-97 145t-36 177q0 151 88.5 270.5t232.5 164.5q19 6 19 26q0 12 -8 20t-19 8q-5 0 -9 -1q-161 -50 -260.5 -184.5t-99.5 -303.5q0 -104 40.5 -198.5t109 -163t163 -109t198.5 -40.5q169 0 303.5 99.5
t184.5 260.5q1 4 1 9q0 20 -19 26h-1z" />
    <glyph glyph-name="praise_icon" unicode="&#xe672;" 
d="M995 462q-24 33 -66 33v0h-299q9 40 16.5 81t14.5 95.5t3 101.5t-19 73q-16 27 -44 34q-49 12 -88 -12q-22 -15 -38.5 -41.5t-21 -40.5t-7.5 -25q-6 -48 -29.5 -94.5t-54.5 -82t-51.5 -55.5t-38.5 -34h-93v0q-12 0 -20 -8t-8 -20v0v-555v0q0 -12 8 -20t20 -8h575h1
q46 0 82.5 27.5t49.5 70.5l121 406q4 11 4 24q0 28 -17 50v0zM955 404l-121 -405q-8 -26 -30 -42.5t-50 -16.5v0h-548v500h70h1h1h3q9 0 16 5q9 6 22.5 16.5t45 42t57 65t49 83.5t30.5 99q3 16 14 37.5t28 32.5q19 12 45 5q5 -1 9 -8q16 -24 12.5 -89.5t-15 -130.5
t-26.5 -123q-1 -2 -1 -4v0q0 -3 -1 -6h1q0 -4 2 -7q2 -10 13 -15q3 -2 9 -3l-4 1q4 -1 7 -1h335v0q11 0 19 -8.5t8 -19.5q0 -4 -1 -8v0zM40 495v0q-12 0 -20 -8t-8 -20v0v-555q0 -12 8 -19.5t19.5 -7.5t19.5 7.5t9 19.5v555v0q0 12 -8.5 20t-19.5 8v0v0z" />
    <glyph glyph-name="reduce_icon" unicode="&#xe673;" 
d="M512 884q-136 0 -251 -67t-182 -182t-67 -251t67 -251t182 -182t251 -67t251 67t182 182t67 251t-67 251t-182 182t-251 67zM512 -60q-90 0 -172.5 35t-142 94.5t-94.5 142t-35 172.5t35 172.5t94.5 142t142 94.5t172.5 35t172.5 -35t142 -94.5t94.5 -142t35 -172.5
t-35 -172.5t-94.5 -142t-142 -94.5t-172.5 -35zM762 412h-500q-12 0 -20 -8t-8 -20t8 -20t20 -8h500q12 0 20 8t8 20t-8 20t-20 8z" />
    <glyph glyph-name="richscan_icon" unicode="&#xe674;" 
d="M40 495v0q11 0 19.5 8t8.5 20v0v305h305q12 0 20 8.5t8 20t-8 19.5t-20 8h-333v0q-12 0 -20 -8t-8 -20v0v-333v0q0 -12 8 -20t20 -8v0v0zM373 -60h-305v305q0 12 -8.5 20t-20 8t-19.5 -8t-8 -20v-333v0q0 -12 8 -20t20 -8v0h333q12 0 20 8t8 19.5t-8 20t-20 8.5zM984 884
h-333q-12 0 -20 -8t-8 -19.5t8 -20t20 -8.5h305v-305v0q0 -12 8.5 -20t20 -8t19.5 8t8 20v0v333v0q0 12 -8 20t-20 8v0zM984 273v0q-11 0 -19.5 -8t-8.5 -20v0v-305h-305v0q-12 0 -20 -8.5t-8 -20t8 -19.5t20 -8v0h333v0q12 0 20 8t8 20v0v333v0q0 12 -8 20t-20 8v0z
M984 412h-944q-12 0 -20 -8t-8 -20t8 -20t20 -8h944q12 0 20 8t8 20t-8 20t-20 8z" />
    <glyph glyph-name="screen_icon" unicode="&#xe675;" 
d="M677 -116v0q-11 0 -19.5 8t-8.5 20v0v555q0 10 6 18l270 343h-826l294 -343q6 -7 6 -18v0v-333q0 -12 -8 -20t-19.5 -8t-19.5 8t-8 20v323l-288 335q-13 16 -13 36q0 23 16.5 39.5t39.5 16.5h826q23 0 39.5 -16.5t16.5 -39.5q0 -19 -12 -34l-264 -336v-546q0 -12 -8 -20
t-20 -8v0z" />
    <glyph glyph-name="share_icon" unicode="&#xe676;" 
d="M845 217q-76 0 -126 -58h-1l-1 1l-383 164q11 28 11 60q0 19 -4 37l378 188q50 -58 126 -58q69 0 118 48.5t49 117.5t-49 118t-118 49t-117.5 -49t-48.5 -118q0 -32 12 -61l-371 -184q-23 36 -60 57.5t-81 21.5q-69 0 -118 -49t-49 -118t49 -118t118 -49q76 0 126 59
q1 0 1 -1h1l383 -164q-11 -28 -11 -61q0 -68 48.5 -117t117.5 -49t118 49t49 118t-49 117.5t-118 48.5zM845 828q46 0 78.5 -32.5t32.5 -78.5t-32.5 -78.5t-78.5 -32.5t-78.5 32.5t-32.5 78.5t32.5 78.5t78.5 32.5zM179 273q-46 0 -78.5 32.5t-32.5 78.5t32.5 78.5
t78.5 32.5t78.5 -32.5t32.5 -78.5t-32.5 -78.5t-78.5 -32.5v0zM845 -60q-46 0 -78.5 32.5t-32.5 78.5t32.5 78.5t78.5 32.5t78.5 -32.5t32.5 -78.5t-32.5 -78.5t-78.5 -32.5z" />
    <glyph glyph-name="setup_icon" unicode="&#xe677;" 
d="M929 523h-54q-38 97 -117 161l83 -9q11 19 11 42q0 48 -41 72l-97 56q-19 11 -42 11q-48 0 -72 -41l-27 -47q-29 5 -61 5t-64 -5l-24 46q-24 42 -72 42q-23 0 -42 -11l-96 -56q-42 -24 -42 -72q0 -23 12 -42l26 -46q-65 -79 -81 -180l-34 74q-34 0 -58.5 -24.5
t-24.5 -58.5v-112q0 -34 24.5 -58.5t58.5 -24.5h54q38 -97 117 -161l-83 9q-11 -19 -11 -42q0 -48 41 -72l97 -56q19 -11 42 -11q11 0 22 3q37 10 53 44l24 41q29 -5 61 -5t64 5l24 -46q24 -42 72 -42q23 0 42 11l96 56q42 24 42 72q0 23 -12 42l-26 46q65 79 81 180l34 -74
q34 0 58.5 24.5t24.5 58.5v112q0 34 -24.5 58.5t-58.5 24.5zM956 328q0 -11 -8 -19t-19 -8h-94l-6 -20q-32 -95 -109 -157l26 22l46 -81q4 -6 4 -14q0 -16 -14 -24l-96 -56q-6 -3 -14 -3q-16 0 -24 13l-47 81l-19 -4q-33 -7 -70 -7t-72 7l-18 4l-46 -81q-8 -13 -24 -13
q-8 0 -14 3l-96 56q-14 8 -14 24q0 8 4 14l46 81l-13 15q-67 74 -82 172l6 -32h-94q-11 0 -19 8t-8 19v112q0 11 8 19t19 8h94l6 20q32 95 109 157l-26 -22l-46 81q-4 6 -4 14q0 16 14 24l96 56q6 3 14 3q16 0 24 -13l47 -81l19 4q33 7 70 7t72 -8l17 -3l47 81q8 13 24 13
q8 0 14 -3l96 -56q14 -8 14 -24q0 -8 -4 -14l-46 -81l13 -15q67 -74 82 -172l-6 32h94q11 0 19 -8t8 -19v-112zM512 551q-69 0 -118 -49t-49 -118t49 -118t118 -49t118 49t49 118t-49 118t-118 49zM512 273q-46 0 -78.5 32.5t-32.5 78.5t32.5 78.5t78.5 32.5t78.5 -32.5
t32.5 -78.5t-32.5 -78.5t-78.5 -32.5z" />
    <glyph glyph-name="text_icon" unicode="&#xe678;" 
d="M818 884h-612q-46 0 -78.5 -32.5t-32.5 -78.5v-778q0 -46 32.5 -78.5t78.5 -32.5h612q46 0 78.5 32.5t32.5 78.5v778q0 46 -32.5 78.5t-78.5 32.5zM873 -5q0 -23 -16 -39t-39 -16h-612q-23 0 -39 16t-16 39v778q0 23 16 39t39 16h612q23 0 39 -16t16 -39v-778zM762 412
h-500q-12 0 -20 -8t-8 -20t8 -20t20 -8h500q12 0 20 8t8 20t-8 20t-20 8zM762 634h-500q-12 0 -20 -8t-8 -19.5t8 -20t20 -8.5h500q12 0 20 8.5t8 20t-8 19.5t-20 8zM762 190h-500v0q-12 0 -20 -8.5t-8 -20t8 -19.5t20 -8v0h500q12 0 20 8t8 19.5t-8 20t-20 8.5z" />
    <glyph glyph-name="store_icon" unicode="&#xe679;" 
d="M1012 635q0 5 -2 10v0l-1 1q-3 6 -7 10l-162 217q-9 11 -22 11v0h-612v0q-13 0 -22 -11l-166 -222q-4 -5 -5 -11l1 4q-2 -4 -2 -10v0v-69q0 -75 53 -128t128 -53q22 0 36.5 1t40 5t46 15t33.5 28q46 -49 163 -49t163 49q13 -17 33.5 -28t46 -15t40 -5t36.5 -1
q75 0 128 53t53 128v69v0.5v0.5zM220 828h584l125 -166h-834zM831 440q-74 0 -99.5 16t-25.5 53v14v0q0 11 -8 19.5t-19.5 8.5t-19.5 -8.5t-8 -19.5v0q0 -42 -29 -62.5t-110 -20.5t-110 20.5t-29 62.5q0 11 -8 19.5t-19.5 8.5t-19.5 -8.5t-8 -19.5v-14q0 -37 -25.5 -53
t-99.5 -16q-52 0 -88.5 36.5t-36.5 88.5v41h888v-41q0 -52 -36.5 -88.5t-88.5 -36.5zM929 328v0q-12 0 -20 -8t-8 -19v0v-329q0 -13 -7.5 -22.5t-17.5 -9.5h-728q-10 0 -17.5 9.5t-7.5 22.5v329q0 11 -8 19t-19.5 8t-19.5 -8t-8 -19v-329q0 -37 23.5 -62.5t56.5 -25.5h728
q33 0 56.5 25.5t23.5 62.5v329v0q0 11 -8 19t-19 8v0z" />
    <glyph glyph-name="time_icon" unicode="&#xe67a;" 
d="M512 884q-136 0 -251 -67t-182 -182t-67 -251t67 -251t182 -182t251 -67t251 67t182 182t67 251t-67 251t-182 182t-251 67zM512 -60q-90 0 -172.5 35t-142 94.5t-94.5 142t-35 172.5t35 172.5t94.5 142t142 94.5t172.5 35t172.5 -35t142 -94.5t94.5 -142t35 -172.5
t-35 -172.5t-94.5 -142t-142 -94.5t-172.5 -35zM762 412h-222v250q0 11 -8 19.5t-20 8.5t-20 -8.5t-8 -19.5v-278v0q0 -12 8 -20t20 -8v0h250q12 0 20 8t8 20t-8 20t-20 8z" />
    <glyph glyph-name="transmit_icon" unicode="&#xe67b;" 
d="M984 328v0q-11 0 -19.5 -8t-8.5 -19v0v-306q0 -23 -16 -39t-39 -16h-778q-23 0 -39 16t-16 39v778q0 23 16 39t39 16h306q11 0 19 8.5t8 20t-8 19.5t-19 8h-306q-46 0 -78.5 -32.5t-32.5 -78.5v-778q0 -46 32.5 -78.5t78.5 -32.5h778q46 0 78.5 32.5t32.5 78.5v306v0
q0 11 -8 19t-20 8v0zM1010 867q-7 17 -26 17h-389q-11 0 -19 -8t-8 -19.5t8 -20t19 -8.5h322l-675 -674q-8 -8 -8 -20t8 -20t20 -8t20 8l674 675v-322q0 -11 8.5 -19t20 -8t19.5 8t8 19v389q0 6 -2 11v0z" />
    <glyph glyph-name="wallet_icon" unicode="&#xe67c;" 
d="M901 828h-778q-46 0 -78.5 -32.5t-32.5 -78.5v-666q0 -46 32.5 -78.5t78.5 -32.5h778q46 0 78.5 32.5t32.5 78.5v666q0 46 -32.5 78.5t-78.5 32.5zM956 301h-444q-23 0 -39.5 16t-16.5 39v56q0 23 16.5 39t39.5 16h444v-166zM512 523q-46 0 -78.5 -32.5t-32.5 -78.5v-56
q0 -46 32.5 -78.5t78.5 -32.5h444v-194q0 -23 -16 -39.5t-39 -16.5h-778q-23 0 -39 16.5t-16 39.5v666q0 23 16 39.5t39 16.5h778q23 0 39 -16.5t16 -39.5v-194h-444zM484 384v0q0 -23 16.5 -39.5t39.5 -16.5t39 16.5t16 39.5v0q0 23 -16 39.5t-39 16.5t-39.5 -16.5
t-16.5 -39.5z" />
    <glyph glyph-name="wifi_icon" unicode="&#xe67d;" 
d="M512 22v0q-12 0 -20 8l-157 158q-8 8 -8 19.5t8 19.5q73 73 177 73t177 -73q8 -8 8 -19.5t-8 -19.5l-157 -158q-8 -8 -20 -8v0zM395 206l117 -117l117 117q-52 39 -117 39t-117 -39v0zM827 337v0q-12 0 -20 8q-59 59 -135 91t-160 32t-160 -32t-135 -91q-8 -8 -19.5 -8
t-20 8t-8.5 19.5t9 20.5q67 67 153 102.5t181 35.5t181 -35.5t153 -102.5q9 -9 9 -20.5t-8.5 -19.5t-19.5 -8zM984 495v0q-11 0 -19 8q-91 90 -208 138.5t-245 48.5t-245 -48.5t-208 -138.5q-8 -8 -19.5 -8t-19.5 8t-8 19.5t8 19.5q99 99 226 151.5t266 52.5t266 -52.5
t226 -151.5q8 -8 8 -19.5t-8 -19.5t-20 -8v0z" />
    <glyph glyph-name="folder_icon" unicode="&#xe67e;" 
d="M929 690h-395q-15 0 -28 7l-155 89q-26 15 -56 15h-200q-34 0 -58.5 -24.5t-24.5 -59.5v-666q0 -35 24.5 -59.5t58.5 -24.5h834q34 0 58.5 24.5t24.5 59.5v555q0 35 -24.5 59.5t-58.5 24.5zM956 51q0 -12 -8 -20t-19 -8h-834q-11 0 -19 8t-8 20v416h888v-416zM68 523v194
q0 12 8 20t19 8h200v0q15 0 28 -7l156 -89q25 -15 55 -15h395q11 0 19 -8t8 -20v-83h-888z" />
    <glyph glyph-name="amplification_icon" unicode="&#xe67f;" 
d="M107 828h266q12 0 20 8.5t8 20t-8 19.5t-20 8h-333q-12 0 -20 -8t-8 -20v-333q0 -12 8 -20t19.5 -8t20 8t8.5 20v266l341 -341q8 -8 19.5 -8t19.5 8t8 19.5t-8 19.5zM1012 245v0q0 12 -8 20t-19.5 8t-20 -8t-8.5 -20v0v-266l-341 341q-8 8 -19.5 8t-19.5 -8t-8 -19.5
t8 -19.5l341 -341h-266v0q-12 0 -20 -8.5t-8 -20t8 -19.5t20 -8v0h333q12 0 20 8t8 20v333z" />
    <glyph glyph-name="calendar_icon" unicode="&#xe680;" 
d="M901 759h-167v56v0q0 11 -8 19t-19.5 8t-19.5 -8t-8 -19v0v-56h-334v56q0 11 -8 19t-19.5 8t-19.5 -8t-8 -19v-56h-167q-46 0 -78.5 -32.5t-32.5 -78.5v-611q0 -46 32.5 -78.5t78.5 -32.5h778q46 0 78.5 32.5t32.5 78.5v611q0 46 -32.5 78.5t-78.5 32.5zM123 703h167v-55
q0 -12 8 -20t19.5 -8t19.5 8t8 20v55h334v-55q0 -12 8 -20t19.5 -8t19.5 8t8 20v0v55h167q23 0 39 -16t16 -39v-83h-888v83q0 23 16 39t39 16v0zM901 -19h-778q-23 0 -39 16.5t-16 39.5v472h888v-472q0 -23 -16 -39.5t-39 -16.5zM790 356h-556v0q-11 0 -19.5 -8t-8.5 -19.5
t8.5 -19.5t19.5 -8v0h556v0q11 0 19.5 8t8.5 19.5t-8.5 19.5t-19.5 8v0zM790 190h-556v0q-11 0 -19.5 -8.5t-8.5 -20t8.5 -19.5t19.5 -8v0h556q11 0 19.5 8t8.5 19.5t-8.5 20t-19.5 8.5z" />
    <glyph glyph-name="label_icon" unicode="&#xe681;" 
d="M987 384l-475 475q-24 25 -60 25h-5l-335 -20q-33 -2 -55.5 -24.5t-24.5 -55.5l-20 -335v-6q0 -35 25 -59l475 -475q24 -25 59.5 -25t60.5 25l355 355q25 25 25 60.5t-25 59.5zM948 304l-356 -356q-8 -8 -20.5 -8t-20.5 8l-475 475q-8 8 -8 21v1l19 336q1 11 9 19t19 9
l336 19h1q13 0 21 -8l475 -475q8 -9 8 -21t-8 -20zM237 659q-38 -38 -38 -92t38 -92.5t92 -38.5t92.5 38.5t38.5 92.5t-38.5 92t-92.5 38t-92 -38zM382 514q-21 -22 -53 -22t-53 22q-22 22 -22 53t22 53t53 22t53 -22t22 -53t-22 -53z" />
    <glyph glyph-name="linkman-contacts_ico" unicode="&#xe682;" 
d="M774 232q3 6 3 13q0 17 -15 25q-91 47 -197 55q133 26 193 92.5t60 160.5q0 127 -90 216.5t-216 89.5t-216 -89.5t-90 -216.5q0 -85 44 -156.5t116 -111.5q-145 -38 -241 -143.5t-113 -251.5v-3q0 -11 7 -19t17 -9h4v0q10 0 18 7t9 17q19 161 143.5 263t301.5 102
q121 0 224 -53q6 -3 13 -3q17 0 25 15v0zM262 578.5q0 103.5 73.5 176.5t176.5 73t176.5 -73t73.5 -176.5t-73.5 -177t-176.5 -73.5t-176.5 73.5t-73.5 177zM623 134v0q0 -12 8 -20t20 -8v0h333v0q12 0 20 8t8 20t-8 20t-20 8v0h-333v0q-12 0 -20 -8t-8 -20v0zM984 51h-333
q-12 0 -20 -8.5t-8 -20t8 -19.5t20 -8h333v0q12 0 20 8t8 19.5t-8 20t-20 8.5v0zM984 -60h-333q-12 0 -20 -8.5t-8 -20t8 -19.5t20 -8h333v0q12 0 20 8t8 19.5t-8 20t-20 8.5v0z" />
    <glyph glyph-name="mute_icon" unicode="&#xe683;" 
d="M500 856q-6 3 -13 3q-9 0 -16 -5l-291 -218h-140v0q-12 0 -20 -8.5t-8 -19.5v0v-448v0q0 -11 8 -19.5t20 -8.5v0h140l291 -218q7 -5 16 -5v0v0q12 0 20 8t8 19v0v896q0 17 -15 24v0zM460 -8l-254 190q-8 6 -17 6h-121v392h121v0q9 0 17 6l254 190v-784zM857 384l147 147
q8 8 8 19.5t-8 19.5t-19.5 8t-19.5 -8l-147 -147l-147 147q-9 8 -20.5 8t-19.5 -8t-8 -19.5t8 -19.5l147 -147l-147 -147q-8 -8 -8 -19.5t8 -19.5t19.5 -8t20.5 8l147 147l147 -147q8 -8 19.5 -8t19.5 8t8 19.5t-8 19.5z" />
    <glyph glyph-name="play_icon" unicode="&#xe684;" 
d="M512 884q-136 0 -251 -67t-182 -182t-67 -251t67 -251t182 -182t251 -67t251 67t182 182t67 251t-67 251t-182 182t-251 67zM512 -60q-90 0 -172.5 35t-142 94.5t-94.5 142t-35 172.5t35 172.5t94.5 142t142 94.5t172.5 35t172.5 -35t142 -94.5t94.5 -142t35 -172.5
t-35 -172.5t-94.5 -142t-142 -94.5t-172.5 -35zM750 407l-334 222q-7 5 -15 5q-12 0 -20 -8t-8 -20v-444q0 -12 8 -20t20 -8q8 0 15 5l334 222q12 8 12 23t-12 23v0zM429 214v340l255 -170z" />
    <glyph glyph-name="service_icon" unicode="&#xe685;" 
d="M956 453h-37q-29 145 -144 239.5t-263 94.5t-263 -94.5t-144 -239.5h-37q-23 0 -39.5 -16t-16.5 -39v-306q0 -34 24.5 -58.5t58.5 -24.5h369q16 -28 48 -28q23 0 39.5 16.5t16.5 39.5t-16.5 39t-39.5 16q-32 0 -48 -27h-369q-11 0 -19 8t-8 19v28h111q23 0 39 16.5
t16 39.5v222q0 23 -16 39t-39 16h-18q29 121 127.5 199.5t223.5 78.5t223.5 -78.5t127.5 -199.5h-18q-23 0 -39 -16t-16 -39v-222q0 -23 16 -39.5t39 -16.5h111q23 0 39.5 16.5t16.5 39.5v222q0 23 -16.5 39t-39.5 16zM179 176h-111v222h111v-222zM956 176h-111v222h111
v-222z" />
    <glyph glyph-name="refresh_icon" unicode="&#xe686;" 
d="M995 726q-5 2 -11 2q-18 0 -26 -17l-51 -128q-57 124 -172 197.5t-253 73.5q-96 0 -183 -37.5t-149.5 -100.5t-100 -150t-37.5 -182t37.5 -182t100 -150t149.5 -100.5t183 -37.5q156 0 279.5 91.5t169.5 240.5q1 4 1 8q0 11 -8 19.5t-20 8.5q-20 0 -26 -20
q-41 -131 -150 -211.5t-246 -80.5q-113 0 -208 55.5t-150.5 151t-55.5 207.5t55.5 207.5t150.5 151t208 55.5q123 0 224.5 -65.5t151.5 -175.5l-134 53q-5 3 -11 3q-11 0 -19 -8.5t-8 -19.5q0 -19 17 -26l194 -78q4 -2 10 -2q18 0 26 18l77 193q2 5 2 10q0 19 -17 26v0z" />
    <glyph glyph-name="order_icon" unicode="&#xe687;" 
d="M790 801h-84v55q0 12 -8 20t-19.5 8t-19.5 -8t-8 -20v0v-55h-278v55q0 12 -8 20t-19.5 8t-19.5 -8t-8 -20v-55h-84q-46 0 -78.5 -32.5t-32.5 -78.5v-695q0 -46 32.5 -78.5t78.5 -32.5h556q46 0 78.5 32.5t32.5 78.5v695q0 46 -32.5 78.5t-78.5 32.5zM845 -5
q0 -23 -16 -39t-39 -16h-556q-23 0 -39 16t-16 39v695q0 23 16 39t39 16h84v-55q0 -12 8 -20t19.5 -8t19.5 8t8 20v55h278v-55q0 -12 8 -20t19.5 -8t19.5 8t8 20v0v55h84q23 0 39 -16t16 -39v-695zM734 328h-444v0q-12 0 -20 -8t-8 -19.5t8 -19.5t20 -8v0h444v0q12 0 20 8
t8 19.5t-8 19.5t-20 8v0zM734 495h-444q-12 0 -20 -8t-8 -19.5t8 -19.5t20 -8h444q12 0 20 8t8 19.5t-8 19.5t-20 8zM734 162h-444q-12 0 -20 -8t-8 -20t8 -20t20 -8h444q12 0 20 8t8 20t-8 20t-20 8z" />
    <glyph glyph-name="red-packet_icon" unicode="&#xe688;" 
d="M929 690v83q0 46 -32.5 78.5t-78.5 32.5h-612q-46 0 -78.5 -32.5t-32.5 -78.5v-778q0 -46 32.5 -78.5t78.5 -32.5h612q46 0 78.5 32.5t32.5 78.5v695v0v0zM206 828h612q23 0 39 -16t16 -39v-65l-284 -122q-36 -16 -77 -16t-78 16l-283 122v65q0 23 16 39t39 16v0z
M818 -60h-612q-23 0 -39 16t-16 39v652l263 -112q45 -20 97.5 -20t100.5 21l261 111v-652q0 -23 -16 -39t-39 -16zM617 420l-105 -78l-105 78q-7 5 -16 5q-11 0 -19.5 -8t-8.5 -19q0 -14 11 -22l110 -83v-7h-69q-12 0 -20 -8t-8 -19.5t8 -19.5t20 -8h69v-42h-69v0
q-12 0 -20 -8t-8 -19.5t8 -19.5t20 -8v0h69v-69q0 -12 8 -20t19.5 -8t20 8t8.5 20v69h69v0q12 0 20 8t8 19.5t-8 19.5t-20 8v0h-69v42h69q12 0 20 8t8 19.5t-8 19.5t-20 8h-69v7l110 83q11 8 11 22q0 11 -8.5 19t-19.5 8q-9 0 -17 -5h1z" />
    <glyph glyph-name="news_icon" unicode="&#xe689;" 
d="M873 606h-55v167q0 46 -33 78.5t-79 32.5h-555q-46 0 -78.5 -32.5t-32.5 -78.5v-778q0 -46 32.5 -78.5t78.5 -32.5h722q46 0 78.5 32.5t32.5 78.5v500q0 46 -32.5 78.5t-78.5 32.5zM95 -5v778q0 23 16.5 39t39.5 16h555q23 0 39.5 -16t16.5 -39v-833h-611q-23 0 -39.5 16
t-16.5 39v0zM929 -5q0 -23 -16.5 -39t-39.5 -16h-55v611h55q23 0 39.5 -16.5t16.5 -39.5v-500zM206 542v0q6 0 10 4t4 10v0v88l64 -95q4 -7 11 -7v0q2 0 4 1q10 3 10 13v0v134q0 5 -4 9t-9.5 4t-10 -4t-4.5 -9v-88l-63 95q-4 6 -12 6q-5 0 -9 -4t-4 -9v-134v0q0 -6 4 -10
t9 -4v0zM373 542h89q6 0 10 4t4 10t-4 10t-10 4h-75v39h75v0q6 0 10 4t4 10t-4 10t-10 4v0h-75v39h75q6 0 10 4t4 9.5t-4 9.5t-10 4h-89v0q-6 0 -10 -4t-4 -9v0v-134v0q0 -6 4 -10t10 -4v0zM536 542h1q10 0 13 9l34 97l34 -96q4 -10 13 -10h2q11 1 12 12l20 134v2
q0 12 -12 13h-2q-12 0 -14 -11l-11 -78l-29 80q-3 8 -13 8t-13 -8l-28 -80l-12 78q-2 11 -14 11h-2q-11 -1 -11 -13v-3l19 -133q2 -11 13 -12v0zM651 384h-445q-11 0 -19 -8t-8 -19.5t8 -20t19 -8.5h445q11 0 19.5 8.5t8.5 20t-8.5 19.5t-19.5 8zM651 245h-445q-11 0 -19 -8
t-8 -19.5t8 -19.5t19 -8h445v0q11 0 19.5 8t8.5 19.5t-8.5 19.5t-19.5 8v0zM651 106h-445q-11 0 -19 -8t-8 -19.5t8 -19.5t19 -8h445v0q11 0 19.5 8t8.5 19.5t-8.5 19.5t-19.5 8v0z" />
    <glyph glyph-name="shrink_icon" unicode="&#xe68a;" 
d="M1004 876q-8 8 -19.5 8t-19.5 -8l-342 -342v267q0 11 -8 19t-19.5 8t-19.5 -8t-8 -19v0v-334q0 -11 8 -19t19 -8h334q11 0 19 8t8 19.5t-8 19.5t-19 8h-267l342 342q8 8 8 19.5t-8 19.5zM439 326q-5 2 -10 2h-334v0q-11 0 -19 -8t-8 -19.5t8 -19.5t19 -8v0h267l-342 -342
q-8 -8 -8 -19.5t8 -19.5t19.5 -8t19.5 8l342 342v-267q0 -11 8 -19t19.5 -8t19.5 8t8 19v334q0 18 -17 25v0z" />
    <glyph glyph-name="stick_icon" unicode="&#xe68b;" 
d="M984 884h-944q-12 0 -20 -8t-8 -19.5t8 -20t20 -8.5h944q12 0 20 8.5t8 20t-8 19.5t-20 8zM532 765q-8 8 -20 8t-20 -8l-389 -389q-8 -8 -8 -19.5t8.5 -20t20 -8.5t19.5 9l341 341v-766v0q0 -12 8 -20t20 -8t20 8t8 20v0v766l341 -341q8 -9 19.5 -9t20 8.5t8.5 20
t-8 19.5z" />
    <glyph glyph-name="video_icon" unicode="&#xe68c;" 
d="M999 659q-7 5 -15 5q-6 0 -12 -3l-212 -106v25q0 35 -24.5 59.5t-58.5 24.5h-582q-34 0 -58.5 -24.5t-24.5 -59.5v-392q0 -35 24.5 -59.5t58.5 -24.5h582q34 0 58.5 24.5t24.5 59.5v25l212 -106q6 -3 12 -3q12 0 20 8.5t8 19.5v504q0 15 -13 23v0zM705 188
q0 -12 -8.5 -20t-19.5 -8h-582q-11 0 -19 8t-8 20v392q0 12 8 20t19 8h582q11 0 19.5 -8t8.5 -20v-392zM956 177l-196 98v218l196 98v-414z" />
    <glyph glyph-name="sort_icon" unicode="&#xe68d;" 
d="M381 883q-4 1 -8 1q-15 0 -23 -12l-222 -334q-5 -7 -5 -15q0 -12 8 -20t20 -8q15 0 23 12l171 257v-852v-1q0 -11 8.5 -19.5t20 -8.5t19.5 8.5t8 19.5v1v944q0 21 -20 27v0zM889 268q-7 5 -16 5q-15 0 -23 -12l-171 -257v852q-1 12 -9 19.5t-19 7.5t-19.5 -7.5
t-8.5 -19.5v-944q0 -21 20 -27q4 -1 8 -1v0v0q15 0 23 12l222 334q5 7 5 15q0 15 -12 23v0z" />
    <glyph glyph-name="suspend_icon" unicode="&#xe68e;" 
d="M512 884q-136 0 -251 -67t-182 -182t-67 -251t67 -251t182 -182t251 -67t251 67t182 182t67 251t-67 251t-182 182t-251 67zM512 -60q-90 0 -172.5 35t-142 94.5t-94.5 142t-35 172.5t35 172.5t94.5 142t142 94.5t172.5 35t172.5 -35t142 -94.5t94.5 -142t35 -172.5
t-35 -172.5t-94.5 -142t-142 -94.5t-172.5 -35zM373 606v0q-11 0 -19.5 -8t-8.5 -20v0v-388q0 -12 8.5 -20t20 -8t19.5 8t8 20v388v0q0 12 -8 20t-20 8v0zM651 606v0q-12 0 -20 -8t-8 -20v0v-388q0 -12 8 -20t19.5 -8t20 8t8.5 20v388v0q0 12 -8.5 20t-19.5 8v0z" />
    <glyph glyph-name="voice_icon" unicode="&#xe68f;" 
d="M512 217q92 0 157 65.5t65 157.5v222q0 92 -65 157t-157 65t-157 -65t-65 -157v-222q0 -92 65 -157.5t157 -65.5zM345 662q0 69 49 117.5t118 48.5t118 -48.5t49 -117.5v-222q0 -69 -49 -118t-118 -49t-118 49t-49 118v222zM845 432q0 11 -8 19t-19.5 8t-19.5 -8t-8 -19
v0q0 -115 -81.5 -196.5t-196.5 -81.5t-196.5 81.5t-81.5 196.5q0 11 -8 19t-19.5 8t-19.5 -8t-8 -19q0 -131 88.5 -226.5t216.5 -105.5v-160h-139q-11 0 -19 -8.5t-8 -20t8 -19.5t19 -8h334q11 0 19 8t8 19.5t-8 20t-19 8.5h-139v160q128 10 216.5 105.5t88.5 226.5z" />
    <glyph glyph-name="volume_icon" unicode="&#xe690;" 
d="M500 856q-6 3 -13 3q-9 0 -16 -5l-291 -218h-140v0q-12 0 -20 -8.5t-8 -19.5v0v-448v0q0 -11 8 -19.5t20 -8.5v0h140l291 -218q7 -5 16 -5v0v0q12 0 20 8t8 19v0v896q0 17 -15 24v0zM460 -8l-254 190q-8 6 -17 6h-121v392h121v0q9 0 17 6l254 190v-784zM826 778
q-8 7 -18 7q-12 0 -20 -8t-8 -20q0 -13 10 -21q78 -65 122 -156.5t44 -195.5t-44 -195.5t-121 -155.5q-11 -9 -11 -22q0 -11 8.5 -19.5t19.5 -8.5q10 0 18 7q88 73 137 176t49 218t-49 218t-137 176zM729 649q-8 7 -18 7q-11 0 -19.5 -8.5t-8.5 -19.5q0 -13 10 -21
q48 -42 75 -99.5t27 -123.5t-27 -123.5t-75 -98.5q-10 -9 -10 -22q0 -12 8 -20t20 -8q10 0 18 7q57 49 89.5 118t32.5 147t-32 147t-89 118h-1z" />
    <glyph glyph-name="warning_icon" unicode="&#xe691;" 
d="M512 884q-136 0 -251 -67t-182 -182t-67 -251t67 -251t182 -182t251 -67t251 67t182 182t67 251t-67 251t-182 182t-251 67zM512 -60q-90 0 -172.5 35t-142 94.5t-94.5 142t-35 172.5t35 172.5t94.5 142t142 94.5t172.5 35t172.5 -35t142 -94.5t94.5 -142t35 -172.5
t-35 -172.5t-94.5 -142t-142 -94.5t-172.5 -35zM512 245v0q12 0 20 8t8 20v0v389q0 11 -8 19.5t-20 8.5t-20 -8.5t-8 -19.5v-389v0q0 -12 8 -20t20 -8v0zM470 148v0q0 -17 12.5 -29.5t29.5 -12.5t29.5 12.5t12.5 29.5v0q0 17 -12.5 29.5t-29.5 12.5t-29.5 -12.5t-12.5 -29.5
v0z" />
    <glyph glyph-name="cry" unicode="&#xe605;" 
d="M337 397q26 0 44 18t18 44t-18 44.5t-44 18.5t-44.5 -18.5t-18.5 -44.5t18.5 -44t44.5 -18zM712 397q26 0 44 18t18 44t-18 44.5t-44 18.5t-44 -18.5t-18 -44.5t18 -44t44 -18zM353 191q69 55 172 55q101 0 172 -55q36 -29 50 -58q5 -9 1.5 -19t-12.5 -14.5t-19 -1.5
t-15 12q-3 7 -8 12q-8 12 -28 30q-55 45 -141 45t-141 -45q-16 -13 -29 -30q-7 -10 -8 -12q-5 -9 -14.5 -12t-18.5 1q-10 5 -13 14.5t1 19.5q16 31 51 58zM525 -89q-96 0 -183.5 37.5t-151 101t-101 151t-37.5 183.5t37.5 183.5t101 151t151 101t183.5 37.5t183.5 -37.5
t151 -101t101 -151t37.5 -183.5t-38 -183.5t-101 -151t-150.5 -101t-183.5 -37.5zM525 809q-115 0 -213 -57t-155 -155t-57 -213t57 -213t155 -155t213 -57t213 57t155 155t57 213t-57.5 213t-155 155t-212.5 57z" />
    <glyph glyph-name="delete" unicode="&#xe607;" 
d="M32 690q-10 0 -17 7t-7 17t7 17t17 7l940 -1q10 0 17 -7t7 -17t-7 -17t-17 -7zM183 614q0 9 7 16.5t17 7.5t17 -7t7 -17v-686l579 6v672q0 10 7 17t17.5 7t17 -6.5t6.5 -17.5v-720l-673 -7v735h-2zM682 25q-9 0 -16.5 7t-7.5 17v475q0 10 7 17t17 7t17 -7t7 -17v-475
q0 -10 -7 -17t-17 -7zM367 25q-10 0 -17 7t-7 17v475q0 10 7 17t17 7t17 -7t7 -17v-475q0 -10 -7 -17t-17 -7zM525 25q-10 0 -17 7t-7 17v475q0 10 7 17t17 7t17 -7t7 -17v-475q0 -10 -7 -17t-17 -7zM652 727v53q0 12 -8.5 20.5t-20.5 8.5h-205q-12 0 -20 -8.5t-8 -20.5v-46
h-48v46q0 31 22.5 53.5t53.5 22.5h205q32 0 54 -22.5t22 -54.5v-53h-47v1z" />
    <glyph glyph-name="remind" unicode="&#xe608;" 
d="M539 -127h-7q-28 1 -50 12.5t-35.5 28.5t-20.5 33t-10 31q-1 9 4 16t14 8.5t16 -3.5t9 -14q1 -3 2 -8t6.5 -16t13 -20t22 -16.5t31.5 -8.5q18 -1 32 6t22 16t14 21t7.5 17.5t2.5 9.5q1 9 8.5 14t16.5 3t14 -9.5t3 -16.5q-3 -15 -11 -31.5t-21 -33.5t-35 -28t-48 -11z
M57 74v0q1 -2 2 -3q4 -5 19 -5h873q13 0 16 3l-1 4v43l1 3q1 5 -1.5 13t-19 30.5t-45.5 49.5q-66 62 -108 198t-42 259q0 25 -11 46t-28 35t-40 25.5t-42.5 17.5t-39.5 10t-28.5 5t-12.5 1h-76h-1q-7 0 -17.5 -2t-37 -7.5t-49 -16t-46 -25t-37 -38t-13.5 -51.5
q0 -73 -14.5 -157.5t-49 -170t-80.5 -129.5q-69 -64 -71 -96v-1v-41v0v0zM78 23q-35 0 -52 20q-14 15 -12 35v31q-8 49 84 135q58 54 94.5 181t36.5 244q0 33 13 61t32.5 46t46.5 32.5t50 22.5t48 13.5t35 6.5t17 2h9v25q0 7 5 12t12 5h22q7 0 12 -5t5 -12v-25h15
q7 -1 17.5 -2t35.5 -6.5t48 -13.5t50 -22.5t46.5 -32.5t33 -46t13.5 -61q0 -115 38.5 -243t96.5 -182q93 -85 79 -136v-29q4 -20 -7 -35q-15 -21 -51 -21h-873z" />
    <glyph glyph-name="Category" unicode="&#xe609;" 
d="M37 637q-11 0 -19 7t-8 17t7.5 17t19.5 7h97q12 0 20 -7t8 -17t-8 -17t-20 -7h-97zM37 360q-11 0 -19 7t-8 17t8 17t19 7h97q12 0 20 -7t8 -17t-8 -17t-20 -7h-97zM37 82q-11 0 -19 7.5t-8 16.5q0 11 7.5 17.5t19.5 6.5h97q12 0 20 -7t8 -17t-8 -17t-20 -7h-97zM280 637
q-11 0 -19 7t-8 17t8 17t19 7h707q11 0 19 -7t8 -17t-7.5 -17t-19.5 -7h-707zM286 360q-11 0 -19 7t-8 17t8 17t19 7h708q11 0 19 -7t8 -17t-8 -17t-19 -7h-708zM290 82q-12 0 -20 7.5t-8 16.5q0 11 8 17.5t20 6.5h707q11 0 19 -7t8 -17t-8 -17t-19 -7h-707z" />
    <glyph glyph-name="back" unicode="&#xe60a;" 
d="M670 46q6 -6 15 -5.5t15 7.5t5.5 15.5t-7.5 14.5l-309 280q-14 13 0 25l309 271q7 6 7.5 14.5t-4.5 15.5q-6 7 -15 7.5t-16 -5.5l-309 -271q-21 -18 -21 -44t20 -45z" />
    <glyph glyph-name="account" unicode="&#xe60b;" 
d="M962 -117v0v0zM704 557.5q0 107.5 -75.5 184t-183 76.5t-183 -76.5t-75.5 -184t76 -183.5t182.5 -76t182.5 76t76 183.5zM232 557.5q0 88.5 62.5 151.5t151 63t151 -63t62.5 -151.5t-62.5 -151.5t-151 -63t-151 63t-62.5 151.5zM456.5 274q147.5 0 259 -91t135.5 -233h46
q-25 161 -150 265t-291 104t-290.5 -104t-150.5 -265h46q26 142 137 233t258.5 91zM770 318l-24 8l21 15q50 35 77.5 88.5t25.5 113.5q-1 96 -67 165.5t-161 76.5v-47q76 -7 128.5 -63t52.5 -132q1 -81 -56 -141q-57 -58 -139 -60q-50 0 -75 -1q-2 0 -16.5 -1t-23.5 -2.5
t-15 -6.5h-2h-2l-10 -12q-1 -1 -4 -5v-8v-9q5 -2 27 -2t54 0.5t76 -1.5q87 0 163.5 -47.5t123 -125t54.5 -165.5l47 -3q-8 119 -77.5 222t-177.5 143z" />
    <glyph glyph-name="add" unicode="&#xe60c;" 
d="M35 357q-11 0 -19 8t-8 19t8 19t19 8h955q11 0 19 -8t8 -19t-8 -19t-19 -8h-955zM512 -120q-11 0 -19 8t-8 19v954q0 11 8 19t19 8t19 -8t8 -19v-955q0 -10 -8 -18t-19 -8z" />
    <glyph glyph-name="calendar" unicode="&#xe60d;" 
d="M274 641q0 -11 7 -18.5t18 -7.5t18.5 7.5t7.5 18.5v195q0 11 -7.5 18.5t-18 7.5t-18 -8t-7.5 -18v-195zM709 654q0 -10 7.5 -17.5t18 -7.5t18 7.5t7.5 17.5v195q0 11 -7.5 18t-18 7t-18 -7.5t-7.5 -17.5v-195zM325 486q10 0 17.5 7.5t7.5 17.5q0 11 -7 18.5t-18 7.5h-141
q-11 0 -18.5 -7.5t-7.5 -18.5t7.5 -18t18.5 -7h141zM606 486q11 0 18.5 7.5t7.5 17.5q0 11 -7.5 18.5t-18.5 7.5h-140q-11 0 -18.5 -7.5t-7.5 -18.5t7.5 -18t18.5 -7h140zM862 486q11 0 18.5 7.5t7.5 17.5q0 11 -7.5 18.5t-18.5 7.5h-140q-11 0 -18.5 -7.5t-7.5 -18.5
t7.5 -18t18.5 -7h140zM325 330q10 0 17.5 7.5t7.5 18t-7.5 18t-17.5 7.5h-141q-11 0 -18.5 -7.5t-7.5 -18t7.5 -18t18.5 -7.5h141zM606 330q11 0 18.5 7.5t7.5 18t-7.5 18t-18.5 7.5h-140q-11 0 -18.5 -7.5t-7.5 -18t7.5 -18t18.5 -7.5h140zM862 330q11 0 18.5 7.5t7.5 18
t-7.5 18t-18.5 7.5h-140q-11 0 -18.5 -7.5t-7.5 -18t7.5 -18t18.5 -7.5h140zM325 174q10 0 17.5 8t7.5 18q0 11 -7 18.5t-18 7.5h-141q-11 0 -18.5 -8t-7.5 -18q0 -11 7.5 -18.5t18.5 -7.5h141zM606 174q11 0 18.5 8t7.5 18q0 11 -7.5 18.5t-18.5 7.5h-140q-11 0 -18.5 -8
t-7.5 -18q0 -11 7.5 -18.5t18.5 -7.5h140zM862 174q11 0 18.5 8t7.5 18q0 11 -7.5 18.5t-18.5 7.5h-140q-11 0 -18.5 -8t-7.5 -18q0 -11 7.5 -18.5t18.5 -7.5h140zM958 40h-889q-23 0 -39 16t-16 39v596q0 23 16 39t39 16h889q22 0 38.5 -16t16.5 -39v-595
q0 -23 -16.5 -39.5t-38.5 -16.5zM69 699q-3 0 -5.5 -2.5t-2.5 -5.5v-595q0 -3 2.5 -5.5t5.5 -2.5h889q3 0 5.5 2.5t2.5 5.5v595q0 3 -2.5 5.5t-5.5 2.5h-889z" />
    <glyph glyph-name="bags" unicode="&#xe60e;" 
d="M91 360q0 91 64.5 155t154.5 64h390q91 0 155 -64t64 -155v-414q0 -10 -7 -17t-17 -7h-779q-10 0 -17 7t-7 17v414h-1zM42 360v-414q0 -30 21.5 -51.5t51.5 -21.5h781q30 0 51.5 21t21.5 52v414q0 111 -78.5 189.5t-189.5 78.5h-390q-111 0 -190 -78.5t-79 -189.5z
M286 433q0 10 7.5 17.5t16.5 7.5q11 0 17.5 -7.5t6.5 -17.5v-73q0 -10 -7 -17.5t-17 -7.5t-17 7.5t-7 17.5v73zM238 433v-73q0 -31 21 -52.5t51 -21.5q31 0 52 21.5t21 52.5v73q0 30 -21.5 51.5t-51.5 21.5t-51 -21.5t-21 -51.5zM652 433q0 10 7 17.5t17 7.5t17 -7.5
t7 -17.5v-73q0 -10 -7 -17.5t-17 -7.5t-17 7.5t-7 17.5v73zM603 433v-73q0 -31 21.5 -52.5t51.5 -21.5q31 0 52 21.5t21 52.5v73q0 30 -21.5 51.5t-51.5 21.5t-51.5 -21.5t-21.5 -51.5zM335 482v195q0 70 50 120t121 50q70 0 120 -50t50 -120v-195h49v195q0 90 -64 154.5
t-155 64.5t-155.5 -64.5t-64.5 -154.5v-195h49zM85 42h827q12 0 21 7.5t9 17t-9 16.5t-21 7h-827q-12 0 -21 -7t-9 -16.5t8.5 -17t21.5 -7.5z" />
    <glyph glyph-name="clock" unicode="&#xe60f;" 
d="M488 286q0 -10 7 -17t17 -7t17 7.5t7 16.5v366q0 10 -7 17t-17 7t-17 -7t-7 -17v-366zM482 425q-7 8 -17 8.5t-18 -6t-8.5 -16.5t6.5 -18l170 -195q7 -8 17 -8.5t17.5 6t8.5 16.5t-6 18zM502 -94q-97 0 -185.5 38t-152.5 102t-102 152.5t-38 185.5t38 185.5t102 152.5
t152.5 102t185.5 38t185.5 -38t153 -102t102.5 -153t38 -186q0 -96 -38.5 -184.5t-102.5 -152.5t-152.5 -102t-185.5 -38zM502 814q-116 0 -215.5 -57.5t-157.5 -156.5t-58 -216t58 -216t157 -156.5t216 -57.5q87 0 166.5 34t137.5 91.5t92 137.5t34 167q0 116 -57.5 215.5
t-156.5 157t-216 57.5z" />
    <glyph glyph-name="close" unicode="&#xe610;" 
d="M177 79q-6 -7 -6 -15.5t6.5 -14.5t15 -6t14.5 6l619 640q6 7 6 15.5t-6.5 14.5t-15.5 6t-15 -6zM795 49q6 -6 15 -6t15.5 6t6.5 14.5t-6 15.5l-619 640q-6 6 -14.5 6t-15 -6t-6.5 -14.5t6 -15.5z" />
    <glyph glyph-name="delete1" unicode="&#xe611;" 
d="M32 654q-8 0 -14 6t-6 14.5t6 14t14 5.5l940 -1q8 0 14 -6t6 -14.5t-6 -14t-14 -5.5zM186 614q0 8 6 14t14.5 6t14 -6t5.5 -14v-689l586 6v675q0 9 6 14.5t14 5.5t14 -5.5t6 -14.5v-716l-666 -8v732v0zM682.5 29q-8.5 0 -14.5 5.5t-6 14.5v475q0 8 6 14t14.5 6t14 -6
t5.5 -14v-475q1 -8 -5 -14t-14.5 -6zM367.5 29q-8.5 0 -14.5 5.5t-6 14.5v475q0 8 6 14t14.5 6t14 -6t5.5 -14v-475q1 -8 -5 -14t-14.5 -6zM524.5 29q-8.5 0 -14 5.5t-5.5 14.5v475q0 8 5.5 14t14 6t14.5 -6t6 -14v-475q0 -8 -6 -14t-14.5 -6zM655 682v49q0 13 -9.5 22.5
t-22.5 9.5h-205q-13 0 -22.5 -9.5t-9.5 -23.5v-42h-40v42q0 30 21.5 51.5t51.5 21.5h205q30 0 51.5 -21.5t21.5 -51.5v-48h-42v0z" />
    <glyph glyph-name="favorite" unicode="&#xe612;" 
d="M802 -71q-12 0 -21 5l-259 128l-252 -140q-14 -7 -29.5 -4.5t-26.5 14.5q-14 15 -12 37l44 285l-212 198q-21 20 -12 46q7 28 36 32l285 48l122 262q12 25 39 26q28 2 42 -24l133 -256l287 -36q28 -3 37 -30q10 -27 -10 -46l-203 -208l56 -284q3 -20 -9 -36
q-14 -17 -35 -17zM521 111q12 0 21 -5l256 -127l-55 280q-5 23 12 40l200 203l-283 36q-24 2 -34 24l-132 252l-120 -258q-11 -22 -34 -26l-282 -46l208 -194q18 -17 14 -40l-42 -282l249 138q10 4 22 5z" />
    <glyph glyph-name="edit" unicode="&#xe613;" 
d="M574 306l-3 -8l2 -8l35 -135l8 -33l28 20l122 86l2 6l229 580l-23 8l-140 56l-21 8l-9 -21zM818 834l140 -56l-13 31l-220 -557l8 10l-116 -82l36 -14l-34 136l-1 -16l230 560zM872 594l-107 40q-13 5 -8 18l8 21q4 12 17 8l108 -40q12 -4 8 -18l-8 -21q-5 -12 -18 -8z
M718 250l-107 40q-12 5 -8 18l8 21q4 12 18 8l107 -40q12 -4 8 -18l-8 -21q-4 -12 -18 -8zM901 672l-107 40q-13 4 -8 18l8 20q4 13 17 8l107 -40q13 -4 8 -17l-8 -21q-1 -5 -6.5 -7.5t-10.5 -0.5zM930 -70h-850q-23 0 -39.5 16.5t-16.5 39.5v620q0 23 16.5 39.5t39.5 16.5
h576q10 0 17 -7t7 -17.5t-7 -17t-17 -6.5h-576q-3 0 -5.5 -2.5t-2.5 -5.5v-620q0 -3 2.5 -5.5t5.5 -2.5h850q3 0 5.5 2.5t2.5 5.5v590q0 10 7 17t17.5 7t17 -7t6.5 -17v-590q0 -23 -16 -39.5t-40 -16.5zM366 406h-164q-11 0 -18.5 7.5t-7.5 17.5q0 11 7.5 18.5t18.5 7.5h165
q11 0 18.5 -7.5t7.5 -18.5q-1 -11 -8.5 -18t-18.5 -7zM410 312h-208q-11 0 -18.5 7.5t-7.5 18.5q0 10 7.5 17.5t18.5 7.5h208q10 0 17.5 -7.5t7.5 -17.5q0 -11 -7.5 -18.5t-17.5 -7.5zM442 219h-240q-11 0 -18.5 7.5t-7.5 18.5q0 10 7.5 17.5t18.5 7.5h240q10 0 17.5 -7.5
t7.5 -17.5q0 -11 -7.5 -18.5t-17.5 -7.5z" />
    <glyph glyph-name="comments" unicode="&#xe614;" 
d="M286 341q-32 0 -54 22.5t-22 55t22 55t53.5 22.5t54 -22.5t22.5 -55t-22.5 -55t-53.5 -22.5zM512.5 341q-31.5 0 -53.5 22.5t-22 55t22 55t53.5 22.5t54 -22.5t22.5 -55t-22.5 -55t-54 -22.5zM739.5 341q-31.5 0 -54 22.5t-22.5 55t22.5 55t54 22.5t53.5 -22.5t22 -55
t-22 -55t-53.5 -22.5zM307 -30q-8 0 -17 4q-20 9 -24 32l-20 123l42 9l21 -122l133 78l2 -46l-115 -72q-11 -6 -22 -6zM512 838q-134 0 -247.5 -53t-180 -144.5t-66.5 -198.5q0 -116 76 -212t201 -144l-7 52q-102 47 -162.5 127.5t-60.5 176t60 176t163 127.5t224 47
t224 -47t163 -127.5t60 -176t-60 -176t-163 -127.5t-224 -47q-19 0 -70 3l-41 -39q58 -10 111 -10q134 0 247.5 53t180 144.5t66.5 199t-66.5 199t-180 144.5t-247.5 53z" />
    <glyph glyph-name="gifts" unicode="&#xe615;" 
d="M197 -107q-30 0 -51 21.5t-21 51.5v352h52v-351q0 -9 6 -15t14 -6h606q8 0 14 6t6 15v339h53v-340q0 -30 -21.5 -51.5t-51.5 -21.5h-606zM127 316v-349q0 -29 20.5 -49.5t49.5 -20.5h606q29 0 49.5 20t20.5 50v337h-47v-338q0 -10 -6.5 -16.5t-16.5 -6.5h-606
q-9 0 -16 6.5t-7 16.5v350h-47zM497 586h53v-669h-53v669zM546 -80v664h-47v-664h47zM150 301q-49 0 -83.5 35t-34.5 84v189h817q49 0 84 -35t35 -83v-189h-818v-1zM84 421q0 -28 19.5 -48t47.5 -20h766v137q0 28 -19.5 47.5t-47.5 19.5h-766v-136zM57 560h792
q29 0 49.5 -20.5t20.5 -49.5v-163l23 23h-792q-29 0 -49.5 20.5t-20.5 49.5v164zM57 607h-23v-186q0 -48 34 -82t82 -34h815v185q0 48 -34 82t-82 34h-792v1zM428 557v122h191v-121h-191v-1zM567 609v18h-88v-18h88zM453 630h140l-23 23v-70l23 23h-140l23 -23v70zM453 677
h-23v-117h186v116h-163v1zM244 567q-1 1 -5.5 6.5t-7.5 9.5q-16 21 -27 40q-10 15 -25 44q-33 70 -5 106q32 43 82.5 73t89.5 30q37 0 99 -76q6 -6 27 -33q3 -4 21 -29t28 -39q8 -13 15 -23l7 -11l-44 -28q-4 6 -7 10q-4 8 -14 23q-36 50 -49 66q-17 23 -25 32
q-14 18 -27.5 31.5t-21 19.5t-9.5 6q-27 0 -67 -25.5t-64 -57.5q-8 -11 11 -53q11 -21 21 -38q15 -23 26 -37q2 -2 4.5 -5.5t4 -5.5t2.5 -3l2 -2l-40 -32zM505 666l39 -26l6 9q7 12 15 22q18 28 49 67q17 22 25 32q21 25 39 41.5t23 16.5q27 0 67.5 -25.5t65.5 -58.5
q9 -13 -11 -55q-13 -26 -22 -40q-9 -15 -25 -36q-2 -3 -4.5 -6.5t-4.5 -5.5t-2 -3l35 -30q2 2 6 7.5t7 9.5q15 20 28 40q16 27 24 44q32 68 6 103q-33 42 -83 72.5t-89 30.5q-34 0 -97 -75q-6 -7 -27 -34q-22 -28 -49 -69q-9 -13 -16 -23q-2 -3 -5 -8z" />
    <glyph glyph-name="iconyinhangqiaguanli" unicode="&#xe616;" horiz-adv-x="1362" 
d="M175 -115q-67 0 -114.5 50.5t-47.5 121.5v654q0 72 47.5 122t114.5 50h1011q68 0 115.5 -50.5t47.5 -121.5v-654q0 -72 -47.5 -122t-115.5 -50h-1011zM57 49q0 -48 32.5 -82t77.5 -34h1023q45 0 77 34t32 82v515h-1242v-515zM167 834q-45 0 -77.5 -34t-32.5 -82v-104
h1242v104q0 48 -32 82t-77 34h-1023zM202 390q-10 0 -17 7t-7 18t7 18.5t17 7.5h504q9 0 16.5 -8t7.5 -18q0 -11 -7 -18t-17 -7h-504zM1048 240q-10 0 -17 7.5t-7 18.5q0 10 7 17.5t17 7.5h107q10 0 17 -7.5t7 -17.5q0 -11 -7 -18.5t-17 -7.5h-107zM1048 124q-10 0 -17 7.5
t-7 18.5q0 10 7 17.5t17 7.5h107q10 0 17 -7.5t7 -17.5q0 -11 -7 -18.5t-17 -7.5h-107z" />
    <glyph glyph-name="less" unicode="&#xe617;" 
d="M510 509q12 14 25 0l270 -310q6 -6 15 -7t15.5 5t7 15t-5.5 15l-270 310q-18 20 -44 20.5t-45 -20.5l-280 -309q-6 -7 -6 -16t7 -14.5t15.5 -5.5t14.5 7z" />
    <glyph glyph-name="map" unicode="&#xe618;" 
d="M457 -98q20 -23 49.5 -23t50.5 23l14 16q16 17 39 45q60 71 117 151q57 78 97 151q77 137 77 229q0 109 -52.5 201.5t-143.5 146.5t-198.5 54t-198.5 -54t-143.5 -146.5t-52.5 -201.5q0 -93 77 -230q41 -72 97 -151q57 -79 117 -151l39 -44q4 -5 9 -10.5t6 -5.5zM492 -66
q-1 1 -3 3.5t-5.5 6t-5.5 6.5q-7 8 -38 44q-57 68 -115 148q-59 81 -95 146q-70 127 -70 206q0 96 46.5 177.5t126 128.5t173.5 47t174 -47t127 -128.5t47 -177.5q0 -79 -71 -205q-38 -70 -94 -147q-52 -72 -115 -147q-31 -36 -38 -44l-14 -16q-16 -16 -30 -1zM506 318
q-81 0 -138.5 57.5t-57.5 138.5t57.5 138.5t138.5 57.5t138.5 -57.5t57.5 -138.5t-57.5 -138.5t-138.5 -57.5zM506.5 662q-61.5 0 -105 -43.5t-43.5 -105t43.5 -104.5t105 -43t104.5 43t43 104.5t-43 105t-104.5 43.5z" />
    <glyph glyph-name="integral" unicode="&#xe619;" 
d="M512.5 402q142.5 0 259 28.5t182.5 78t66 110.5t-66 111t-182.5 78.5t-259 28.5t-259 -28.5t-182.5 -78.5t-66 -111t66 -110.5t182.5 -78t259 -28.5zM512.5 782q96.5 0 182.5 -14.5t144 -38t92 -52.5t34 -57.5t-34 -57.5t-92 -52.5t-144 -38t-182.5 -14.5t-182.5 14.5
t-144 38t-92 52.5t-34 57.5t34 57.5t92 52.5t144 38t182.5 14.5zM512.5 172q142.5 0 258.5 28t181.5 77.5t65.5 110.5q0 47 -43 90h-0.5h-0.5v0.5v0.5v0q-8 6 -17 6q-10 0 -17.5 -7t-7.5 -18q0 -10 8 -18v0q26 -26 26 -54q0 -29 -34 -58.5t-92 -53t-144.5 -38t-183 -14.5
t-183 14.5t-144.5 38t-92 53t-34 58.5q0 31 26 55h1l1 1v0v0q6 7 6 17t-7 17.5t-17.5 7.5t-17.5 -8h-1q-43 -42 -43 -90q0 -61 65.5 -110.5t181.5 -77.5t258.5 -28zM975 249l-1 1v0q-7 6 -17 6t-17.5 -7t-7.5 -18q0 -10 9 -18h-1q26 -26 26 -54q0 -29 -33.5 -58.5t-92 -53
t-145 -38t-183 -14.5t-183 14.5t-144.5 38t-92 53t-34 58.5q0 31 27 54v1h0.5t0.5 0.5v0.5v0q7 7 7 17t-7.5 17t-18 7t-17.5 -7v0q-44 -42 -44 -90q0 -61 66 -110.5t182 -77.5t258 -28t258 28t181.5 77.5t65.5 110.5q0 47 -43 90v0v0z" />
    <glyph glyph-name="more" unicode="&#xe61a;" 
d="M642 391q14 -12 0 -24l-309 -271q-7 -6 -7.5 -14.5t5 -15.5t14.5 -7.5t16 5.5l309 271q21 18 21 44t-20 44l-310 281q-7 6 -15.5 5.5t-14.5 -7t-5.5 -15.5t6.5 -15z" />
    <glyph glyph-name="more_unfold" unicode="&#xe61b;" 
d="M478 252q19 -20 45 -20t44 21l270 309q6 7 5.5 15.5t-7 14.5t-15.5 5.5t-15 -7.5l-270 -309q-13 -14 -25 -1l-281 310q-6 7 -14.5 7.5t-15.5 -5.5t-7 -15t6 -15z" />
    <glyph glyph-name="refresh" unicode="&#xe61c;" 
d="M512 896q-139 0 -257 -68.5t-186.5 -186.5t-68.5 -257t68.5 -257t186.5 -186.5t257 -68.5q123 0 231 54.5t180 151t93 216.5q7 39 8 83q-1 -13 -3.5 -18.5t-4.5 -6t-8.5 1.5t-8.5 2q-10 1 -18.5 -5.5t-9.5 -16.5q-4 -40 -15 -77q-10 -65 -49.5 -125.5t-98 -107
t-136.5 -74.5t-160 -28q-94 0 -179.5 36.5t-147.5 98.5t-98.5 147.5t-36.5 179.5t36.5 179.5t98.5 147.5t147.5 98.5t179.5 36.5q139 0 254.5 -76t169.5 -203q4 -9 14 -13t19.5 0t13 14t-0.5 19q-60 140 -188 224.5t-282 84.5zM958 546l25 25h-259q-10 0 -17.5 -7.5
t-7.5 -18t7.5 -17.5t17.5 -7h259q11 0 18 7t7 18v275q0 10 -7 17.5t-17.5 7.5t-18 -7.5t-7.5 -17.5v-275z" />
    <glyph glyph-name="selected" unicode="&#xe61d;" 
d="M439 216q7 -7 17.5 -6.5t17.5 7.5l300 309q8 8 7.5 18t-7.5 18q-8 7 -18 7t-18 -8l-300 -310l36 1l-183 167q-8 7 -18 6.5t-17 -8t-6.5 -17.5t8.5 -18zM515.5 -111q-101.5 0 -194.5 39.5t-160 106.5t-106.5 159.5t-39.5 194t39.5 194.5t106.5 160t160 106.5t194.5 39.5
t194 -39.5t159.5 -106.5t106.5 -160t39.5 -194.5t-39.5 -194t-106.5 -159.5t-159.5 -106.5t-194 -39.5zM515 841q-92 0 -175.5 -36t-144 -96.5t-96.5 -144t-36 -175.5t36 -176t96.5 -144.5t144 -96t175.5 -35.5t176 35.5t144.5 96t96 144.5t35.5 176t-35.5 175.5t-96 144
t-144.5 96.5t-176 36z" />
    <glyph glyph-name="remind1" unicode="&#xe61e;" 
d="M515 -49q-19 0 -37 18l-247 248h-154q-28 0 -48.5 20t-20.5 49v175q0 29 20.5 49t48.5 20h153l248 248q17 18 36 18q18 0 29 -13.5t11 -35.5v-747q0 -22 -10.5 -35.5t-28.5 -13.5zM77 477q-7 0 -11.5 -5t-4.5 -11v-175q0 -6 4.5 -11t11.5 -5h176l248 -248v703l-248 -248
h-176zM615 138q-11 0 -18.5 8t-7.5 19t7.5 18.5t18.5 7.5q64 0 109.5 49.5t45.5 119t-45.5 118.5t-109.5 49q-11 0 -18.5 8t-7.5 18.5t7.5 18.5t18.5 8q87 0 147.5 -65t60.5 -156.5t-60.5 -156t-147.5 -64.5zM765 9q-17 0 -24 15q-5 10 -2 20q4 10 14 15q92 46 145.5 129
t53.5 181q0 102 -59.5 188.5t-158.5 129.5q-9 5 -14 15q-4 9 0 20q7 16 25 16q5 0 10 -2q114 -49 182 -149t68 -218q0 -113 -61.5 -209t-166.5 -149q-5 -2 -12 -2z" />
    <glyph glyph-name="set" unicode="&#xe61f;" 
d="M826 249l-7 -13l8 -12l79 -116l3 31l-139 -135l29 3l-127 76l-10 7l-12 -5q-16 -7 -24 -10l-14 -5l-3 -13l-28 -131l24 19h-197l24 -19l-34 138l-4 12l-12 5l-21 9l-12 6l-11 -7l-120 -77l30 -3l-139 136l4 -31l77 124l8 12l-6 12q-5 10 -10 24l-4 13l-14 3l-134 28
l19 -24v192l-19 -24l142 33l12 3l5 12q5 12 11 25l6 13l-81 122l-3 -31l138 137l-30 -4l132 -81l12 5q3 1 9.5 4t10.5 4l12 4l4 13l32 133l-24 -19h198l-24 19l29 -136l2 -12l13 -5q17 -7 30 -13l12 -6l11 8l113 71l-28 3l140 -134l-4 30l-76 -120l-8 -11l6 -12
q9 -22 10 -25l4 -13l12 -3l135 -32l-19 24v-192l20 24l-142 -29l-13 -2l-5 -12q-3 -10 -8 -20zM858 260l4 -24l161 33v231l-18 5l-135 32l-5 -24l23 8q-3 9 -11 29l-23 -10l21 -13l76 120l11 17l-15 14l-140 134l-13 12l-16 -10l-114 -72l13 -20l11 22q-18 9 -34 14l-9 -22
l24 5l-29 136l-4 19h-235l-5 -18l-33 -133l24 -6l-8 23q-5 -1 -23 -8l10 -23l12 21l-139 83l-13 -13l-139 -137l-14 -15l11 -16l74 -110l20 14l-22 10q-7 -14 -13 -28l23 -10l-6 24l-142 -33l-18 -4v-231l19 -4l135 -28l5 24l-23 -8q3 -9 11 -28l23 9l-21 13l-78 -124
l-10 -17l14 -13l139 -136l14 -13l16 10l120 77l-13 21l-10 -23l25 -10l8 22l-24 -5l35 -138l5 -18h235l4 19l28 131l-24 5l8 -23q15 5 28 10l-10 23l-13 -21l144 -86l13 13l139 136l15 14l-11 17l-79 116l-20 -13l22 -12q8 16 11 24zM512 214q-75 0 -128.5 53.5t-53.5 128.5
t53.5 128.5t128.5 53.5t128.5 -53.5t53.5 -128.5t-53.5 -128.5t-128.5 -53.5zM512 530q-55 0 -94.5 -39.5t-39.5 -94.5t39.5 -94.5t94.5 -39.5t94.5 39.5t39.5 94.5t-39.5 94.5t-94.5 39.5z" />
    <glyph glyph-name="smile" unicode="&#xe620;" 
d="M250 529q0 -27 19 -46.5t46 -19.5t46.5 19.5t19.5 46.5t-19.5 46t-46.5 19t-46 -19t-19 -46zM512 106q34 0 65 6.5t54 17.5t43 26t34 31t25.5 32t18.5 30.5t11.5 26t5.5 17.5l2 7h-518q1 -4 3 -11t11 -27t20.5 -38.5t32.5 -41t46.5 -38.5t63.5 -27t82 -11zM512 -114
q-101 0 -193 39.5t-159 106t-106.5 159t-39.5 193.5t39.5 193t106.5 159t159 106.5t193 39.5t193.5 -39.5t159 -106.5t106 -159t39.5 -193.5t-39.5 -194t-106 -159t-159 -105.5t-193.5 -39zM512 828q-120 0 -222.5 -59.5t-162 -162t-59.5 -222.5t59.5 -222.5t162 -162
t222.5 -59.5t222.5 59.5t162 162t59.5 222.5t-59.5 222.5t-162 162t-222.5 59.5zM643 529q0 -27 19.5 -46.5t46.5 -19.5t46 19.5t19 46.5t-19 46t-46 19t-46.5 -19t-19.5 -46z" />
    <glyph glyph-name="shoppingbag" unicode="&#xe621;" 
d="M298 410q0 10 7.5 17t16.5 7q11 0 17.5 -7t6.5 -17v-73q0 -10 -7 -17.5t-17 -7.5t-17 7.5t-7 17.5v73zM250 410v-73q0 -31 21 -52.5t51 -21.5q31 0 52 21.5t21 52.5v73q0 30 -21.5 51.5t-51.5 21.5t-51 -21.5t-21 -51.5zM680 410q0 10 7 17t17 7t17 -7t7 -17v-73
q0 -10 -7 -17.5t-17 -7.5t-17 7.5t-7 17.5v73zM631 410v-73q0 -31 21.5 -52.5t51.5 -21.5q31 0 52 21.5t21 52.5v73q0 30 -21.5 51.5t-51.5 21.5t-51.5 -21.5t-21.5 -51.5zM343 458v211q0 70 50 120t121 50q70 0 120 -50t50 -120v-211h49v211q0 91 -64 155t-155 64
t-155.5 -64.5t-64.5 -154.5v-211h49zM912 -118h-797q-50 0 -83 40q-33 39 -22 88v1l118 495q8 38 38 62t68 24h560q37 0 67 -24t37 -62l119 -496q10 -51 -23 -89q-31 -39 -82 -39zM57 1q-5 -28 12 -49q18 -22 45 -22h798q28 0 46 22t12 49l-119 496q-4 20 -20 33.5t-37 13.5
h-560q-21 0 -37.5 -13.5t-20.5 -33.5v-1z" />
    <glyph glyph-name="survey" unicode="&#xe622;" 
d="M452 267q13 0 22.5 -9.5t9.5 -22.5v-9q0 -13 -9.5 -22.5t-22.5 -9.5t-22.5 9.5t-9.5 22.5v9q0 13 9.5 22.5t22.5 9.5zM304 522q0 -3 1 -6.5t8 -9.5t18 -6t17.5 5.5t8.5 10.5l1 6q-4 106 98 100q67 -7 70 -76q-5 -30 -51 -78q-61 -62 -61 -109v-33q1 -2 2 -5t7.5 -9
t16.5 -6t16.5 5t7.5 10l2 5v24q0 40 57 96q61 55 61 102q-5 127 -133 132q-147 0 -147 -158zM558 2h-442q-22 0 -38 16t-16 38v762q0 22 16 38t38 16h656q22 0 38 -16t16 -38v-24h-1v-398zM116 824q-2 0 -4 -2t-2 -4v-762q0 -2 2 -4t4 -2h417l244 360v411q-2 3 -5 3h-656z
M633 45l-4 -6v-7l-2 -118v-36l33 13l110 45l7 2l4 6l205 299l12 19l-19 13l-109 75l-19 12l-13 -19zM844 312l109 -74l-7 32l-204 -300l10 9l-110 -45l32 -21l1 118l-4 -13l205 300zM751 -39l-89 61l27 40l89 -61z" />
    <glyph glyph-name="Smile" unicode="&#xe623;" 
d="M325 456q26 0 44 18.5t18 44t-18 44t-44 18.5t-44.5 -18.5t-18.5 -44t18.5 -44t44.5 -18.5zM699 456q26 0 44.5 18.5t18.5 44t-18.5 44t-44.5 18.5t-44 -18.5t-18 -44t18 -44t44 -18.5zM340 186q71 -55 172 -55t172 55q36 30 50 59q5 9 1.5 19t-12.5 14.5t-19 1
t-14 -12.5l-8 -12q-9 -12 -29 -29q-55 -45 -141 -45q-84 0 -141 45q-16 13 -29 29q-7 11 -8 12q-4 9 -14 12.5t-19.5 -1t-12.5 -14.5t2 -19q14 -29 50 -59zM512 -114q-102 0 -195 39.5t-160.5 107t-107 160.5t-39.5 195t39.5 195t107 160.5t160.5 107t195 39.5t195 -39.5
t160.5 -107t107 -160.5t39.5 -195t-39.5 -195t-107 -160.5t-160.5 -107t-195 -39.5zM512 842q-92 0 -176 -36t-145 -97t-97 -145t-36 -176t36 -176t97 -145t145 -97t176 -36t176 36t145 97t97 145t36 176t-36 176t-97 145t-145 97t-176 36z" />
    <glyph glyph-name="vip" unicode="&#xe624;" 
d="M402 454l-80 -279h-33l-80 279h39l56 -211h3l56 211h39zM531 178h-37v276h37v-276zM808 370q0 -39 -22.5 -61.5t-63.5 -22.5h-46v-108h-37v276h83q41 0 63.5 -22.5t22.5 -61.5zM771 370q0 31 -14.5 42t-43.5 11h-37v-106h37q29 0 43.5 11t14.5 42zM957 88q0 -25 -18 -43
t-43 -18h-776q-26 0 -43.5 18t-17.5 43v592q0 25 17.5 43t43.5 18h776q25 0 43 -18t18 -43v-592zM908 554h-804v-448q0 -13 9 -22.5t23 -9.5h740q13 0 22.5 9.5t9.5 22.5v448v0zM908 607v52q0 13 -9.5 22.5t-22.5 9.5h-740q-14 0 -23 -9.5t-9 -22.5v-52h804zM908 607z" />
    <glyph glyph-name="dianhua" unicode="&#xe625;" 
d="M738 -38q-127 0 -243 46t-202.5 125.5t-143 191t-68.5 237.5v1l-3 19v8v7q0 53 25 99t70 76q46 32 103 34h13q47 0 90 -20t73 -56q33 -40 43.5 -90.5t-2.5 -101.5t-50 -89.5t-89 -54.5l-22 -8l14 -18q95 -120 229 -189l19 -9l4 20q12 54 56.5 90t102.5 39h8
q71 0 123 -47.5t58 -117.5q4 -35 -9 -76q-17 -46 -55.5 -77.5t-88.5 -38.5q-3 -1 -7 -1.5t-7 -0.5q-9 2 -41 2zM118 568q11 -120 64 -225.5t135.5 -180.5t191.5 -118.5t229 -43.5q12 0 40 2h3h7q39 6 69.5 30.5t44.5 61.5q11 28 8 60q-4 54 -45.5 92.5t-95.5 38.5h-7
q-46 -3 -82.5 -32t-47.5 -74q-4 -15 -18.5 -26t-31.5 -11q-12 0 -22 5q-167 85 -274 244q-6 9 -2 19q5 10 17 12q56 3 100 38t57 87q12 43 3 84.5t-36 74.5q-53 63 -135 63h-10q-46 -3 -85 -29q-36 -24 -57 -62.5t-21 -81.5v-12q-1 -5 1 -16z" />
    <glyph glyph-name="wrong" unicode="&#xe626;" 
d="M332 233q-7 -7 -7 -17.5t7 -18t17.5 -7.5t17.5 8l350 356q7 7 7 17.5t-7 17.5t-17.5 7t-17.5 -7zM682 198q7 -8 17.5 -8t17.5 7.5t7 18t-7 17.5l-350 356q-7 7 -17.5 7t-17.5 -7t-7 -17.5t7 -17.5zM517 -118q-102 0 -195.5 39.5t-161 107t-107 161t-39.5 195.5
t39.5 195.5t107 161t161 107.5t195.5 40t195 -40t160.5 -107.5t107.5 -160.5t40 -195.5t-40 -195.5t-107.5 -160.5t-160.5 -107.5t-195 -40zM516.5 841q-92.5 0 -176.5 -36.5t-145 -97.5t-97 -145.5t-36 -177t36 -176.5t97 -145t145 -97t176.5 -36t177 36t145.5 97t97 145
t36 176.5t-36 177t-97 145.5t-145.5 97.5t-177 36.5z" />
    <glyph glyph-name="dianhua1" unicode="&#xe627;" horiz-adv-x="2175" 
d="M794 580l-107 -109q45 -100 129.5 -187.5t182.5 -120.5l93 92q220 -38 269 -62q61 -30 50 -124q-3 -25 -19.5 -56.5t-44 -63.5t-72 -54t-95.5 -23q-109 -1 -252.5 73.5t-256.5 193.5q-60 64 -109 128.5t-88.5 134t-57.5 140.5t-11 133q6 49 27 87.5t45.5 59.5t54 35
t49 18.5t34.5 5.5q58 4 91 -36q13 -17 35 -83.5t37.5 -123t15.5 -58.5zM672 809q-25 33 -79 20q-14 -3 -32.5 -12.5t-42.5 -27t-42.5 -49t-23.5 -69.5q-12 -95 54.5 -234.5t186.5 -255.5q254 -247 459 -263q38 -3 73 7.5t58 28t41.5 39.5t27.5 39.5t12 30.5q7 27 2 51
t-20 35q-11 9 -70.5 23t-114.5 24l-54 10l-97 -96q-121 40 -224 142t-150 234l106 107l-1 2q-52 192 -69 214v0z" />
    <glyph glyph-name="fenlei" unicode="&#xe628;" 
d="M641 -127q-36 0 -64.5 37.5t-28.5 79.5v264q0 39 27 66t66 27h289q39 0 66 -27t27 -66v-288q0 -39 -27 -66t-66 -27h-289zM642 299q-19 0 -33.5 -14t-14.5 -34v-285q0 -20 14.5 -34t33.5 -14h286q20 0 34 14t14 34v285q0 20 -14 34t-34 14h-286zM94 -127
q-36 0 -64.5 37.5t-28.5 79.5v264q0 39 27 66t66 27h289q39 0 66 -27t27 -66v-288q0 -39 -27 -66t-66 -27h-289zM95 299q-20 0 -34 -14t-14 -34v-285q0 -20 14 -34t34 -14h286q20 0 34 14t14 34v285q0 20 -14 34t-34 14h-286zM641 420q-36 0 -64.5 38t-28.5 79v265
q0 38 27 65t66 27h289q39 0 66 -27t27 -65v-289q0 -39 -27 -66t-66 -27h-289zM642 846q-19 0 -33.5 -14t-14.5 -34v-285q0 -20 14.5 -34t33.5 -14h286q20 0 34 14t14 34v285q0 20 -14 34t-34 14h-286zM94 420q-36 0 -64.5 38t-28.5 79v265q0 38 27 65t66 27h289q39 0 66 -27
t27 -65v-289q0 -39 -27 -66t-66 -27h-289zM95 846q-20 0 -34 -14t-14 -34v-285q0 -20 14 -34t34 -14h286q20 0 34 14t14 34v285q0 20 -14 34t-34 14h-286z" />
    <glyph glyph-name="gouwuchexiantiao" unicode="&#xe629;" 
d="M801 -56q-24 0 -40 16.5t-16 39.5t16 39.5t39.5 16.5t40 -16.5t16.5 -39.5t-16.5 -39.5t-39.5 -16.5zM353 -56q-24 0 -40 16.5t-16 39.5t16 39.5t39.5 16.5t40 -16.5t16.5 -39.5t-16.5 -39.5t-39.5 -16.5zM344 104q-32 0 -56 22t-28 54l-54 382l-32 179q-1 14 -12 24.5
t-25 10.5h-41q-10 0 -17 7t-7 17t7 17t17 7h41q32 0 56.5 -22t28.5 -54l32 -178l54 -384q1 -13 12 -23.5t24 -10.5h520q10 0 17 -7t7 -17t-7 -17t-17 -7h-520zM384 232q-10 0 -16.5 6.5t-7.5 15.5q-1 10 5.5 18t16.5 8l434 32q14 0 25.5 10t12.5 24l51 288q2 22 -11 36
q-8 10 -21 10h-553q-10 0 -17 7t-7 17t7 17t17 7h554q34 0 58 -26q27 -30 22 -75l-51 -288q-3 -31 -28 -52.5t-56 -21.5l-432 -32q-1 -1 -3 -1z" />
    <glyph glyph-name="dingdanyiwancheng" unicode="&#xe62a;" 
d="M959 688v8q0 56 -39.5 96t-96.5 40h-6h-612h-5q-56 0 -96 -40t-40 -96v-11v0v-595v-20q0 -56 39.5 -95t94.5 -39h7h1h608q4 -1 10 -1q56 0 95 39.5t39 94.5v12h1v607zM201 -6h-2q-32 0 -54 23t-23 57v489h779v-485l-1 -3v-5q0 -30 -21 -52t-51 -24l-11 -1v1h-616z
M901 622h-779v66l1 2q1 3 1 6q0 31 22.5 53.5t55.5 22.5v1h618l3 -1q32 0 54.5 -22.5t22.5 -53.5v-5l1 -1v-68zM697.5 425q-12.5 0 -20.5 -9l-224 -224l-106 107q-9 9 -21 9t-21 -8.5t-9 -21t9 -21.5l127 -127q9 -9 21.5 -9t20.5 9l245 244q8 9 8 21t-8.5 21t-21 9z" />
    <glyph glyph-name="haoping" unicode="&#xe62b;" 
d="M254 -17h-149q-10 0 -17 7t-7 17v448q0 10 7 17t17 7h141v2q88 11 146.5 75.5t61.5 153.5v0q0 2 -0.5 5t-0.5 5q0 40 27.5 67.5t67.5 27.5q33 0 59 -20.5t34 -52.5l2 -12q7 -31 7 -71q0 -63 -21 -125l-5 -17h232q52 -3 80 -46q12 -19 14 -44q2 -16 -6 -48q-2 -11 -7 -32
t-7 -32q-4 -14 -10 -42.5t-10 -42.5l-19 -86q-2 -10 -7 -32.5t-8 -35.5q-7 -32 -14 -45q-13 -20 -32 -32q-23 -14 -47 -15h-525q-2 -1 -4 -1zM502 730v-4v-10q0 -33 -5 -57q-1 -5 -7 -25l-2 -7q-23 -68 -76.5 -118.5t-123.5 -68.5l-10 -2v-407h492q31 0 45 18q6 7 14 41
q2 9 7 32t8 36q3 14 10 43t10 44l19 86q2 8 5.5 23t5.5 23q0 3 2 11t2 11q4 17 4 23q0 3 -2 8q-1 5 -6 15q-15 24 -48 23h-259q-10 0 -17 7t-7 17q0 6 3 10l4 10q20 40 28 79l1 4q6 17 6 63q0 14 -1.5 29t-2.5 23l-2 8q0 20 -14 34t-34 14q-17 1 -30.5 -9.5t-18.5 -26.5z
M129 431v-399h101v400z" />
    <glyph glyph-name="dingdan" unicode="&#xe62c;" 
d="M300 434h425v-48h-425v48zM300 222h260v-48h-260v48zM818 -86h-612q-19 0 -37 8q-19 8 -30 20q-13 12 -20 29q-7 18 -7 37v638q0 18 7 36q8 19 20 30q13 13 30 20q18 7 37 7h92v-47h-92q-20 0 -34 -14t-14 -33v-638q0 -19 14 -33t34 -14h612q19 0 33 14t14 33v639
q0 19 -14 33t-33 14h-92v47h92q19 0 37 -7q19 -8 30 -20q13 -13 20 -30q7 -18 7 -37v-637q0 -19 -7 -37q-8 -19 -20 -30q-13 -12 -30 -20t-37 -8zM747 598h-470v154q0 25 17 42t42 17h61q16 33 47.5 52t68.5 19t68.5 -19t47.5 -52h61q24 0 41.5 -17t17.5 -42zM324 646h377
v106q0 5 -3.5 8.5t-8.5 3.5h-94l-5 16q-9 25 -30.5 40t-47.5 15t-47.5 -15t-30.5 -40l-5 -16h-94q-5 0 -8.5 -3.5t-3.5 -8.5v-106h1z" />
    <glyph glyph-name="huiyuan" unicode="&#xe62d;" 
d="M194 73q-16 0 -20 16l-102 441h-12q-20 0 -33.5 14.5t-13.5 34t14 33.5t35 14q20 0 34 -14t14 -34q0 -10 -4 -20l-7 -14l218 -98l179 278l-12 9q-21 14 -21 40q0 20 14.5 34.5t34.5 14.5t34.5 -14.5t14.5 -34.5q0 -26 -21 -40l-12 -8l160 -279l237 99l-7 14q-4 11 -4 19
q0 20 14.5 34.5t34.5 14.5t34.5 -14t14.5 -35q0 -20 -14.5 -34t-34.5 -14h-13l-103 -442q-4 -16 -20 -16h-633v1zM210 113h602l88 377l-212 -88q-5 -1 -8 -1q-11 0 -18 9l-152 262l-169 -262q-7 -9 -17 -9q-3 0 -8 1l-193 87zM162 -40q-11 0 -17.5 7t-6.5 17t6.5 17t17.5 7
h699q10 0 17 -7t7 -17t-7 -17t-17 -7h-699z" />
    <glyph glyph-name="jifen" unicode="&#xe62e;" 
d="M494 124v59q-65 7 -113 46l-4 3l29 37l4 -2q50 -40 102 -40q75 0 75 61q0 16 -6.5 29t-21.5 23.5t-26 16.5t-34 16q-25 11 -38.5 18.5t-31 20.5t-25.5 30.5t-8 40.5q0 39 27 66.5t71 34.5v60h46v-59q54 -6 93 -45l4 -4l-33 -33l-3 3q-19 17 -37 25t-44 8q-29 0 -47 -15.5
t-18 -40.5t19.5 -40t60.5 -33q22 -9 32 -14t28.5 -16.5t27 -22.5t16 -29t7.5 -40q0 -42 -28 -70.5t-77 -35.5v-60h-47v2zM512 -90q-96 0 -184 37.5t-151.5 101t-101 151.5t-37.5 184t37.5 184t101 151.5t151.5 101t184 37.5t184 -37.5t151.5 -101t101 -151.5t37.5 -184
t-37.5 -184t-101 -151.5t-151.5 -101t-184 -37.5zM512 810q-115 0 -213.5 -57t-155.5 -155.5t-57 -213.5t57 -213.5t155.5 -155.5t213.5 -57t213.5 57t155.5 155.5t57 213.5t-57 213.5t-155.5 155.5t-213.5 57zM512 -5q-10 0 -17.5 7.5t-7.5 17.5t7.5 17t17.5 7
q92 0 170 45.5t123.5 123.5t45.5 170q0 78 -35 148q-5 11 -1 20q3 8 13 14q5 3 11 3q16 0 22 -14q39 -79 39 -170q0 -105 -52 -194.5t-141.5 -142t-194.5 -52.5v0zM766 620q-10 0 -17 7q-100 97 -237 97q-10 0 -17.5 7t-7.5 17t7.5 17.5t17.5 7.5q76 0 146.5 -28.5
t124.5 -81.5q8 -8 8 -18t-8 -17q-7 -8 -17 -8zM371 24q-3 0 -10 2q-108 46 -173 143.5t-65 214.5q0 113 62 209.5t165 143.5q4 2 10 2q15 0 23 -15q4 -9 0.5 -18.5t-12.5 -13.5q-90 -41 -144 -125t-54 -183q0 -103 56.5 -188t151.5 -124q9 -4 13.5 -13.5t0.5 -19.5
q-9 -15 -24 -15v0z" />
    <glyph glyph-name="liuyanjianyi" unicode="&#xe62f;" 
d="M394 43h-4q-3 0 -4 1q-1 0 -3 2q-2 0 -5 3v1h-1h-1l-2 2l-1 2l-60 100h-143q-38 0 -64 26.5t-26 63.5v425q0 37 26 63t64 26h716q37 0 63 -26t26 -63v-425q0 -37 -26 -63.5t-63 -26.5h-371l-105 -105q-1 -1 -2 -1l-1 -1q-1 -1 -2 -1h-1l-5 -2q-1 0 -2 -0.5t-2 -0.5h-1z
M326 199q13 0 20 -10l52 -87l92 92q6 6 16 6h380q19 0 32 13t13 32v424q0 18 -13 31.5t-32 13.5h-716q-19 0 -32 -13.5t-13 -31.5v-425q0 -19 13 -32t32 -13h156zM728.5 423q-18.5 0 -31.5 13t-13 32t13 32t31.5 13t32 -13t13.5 -32t-13.5 -32t-32 -13zM528 423
q-19 0 -32 13t-13 32t13 32t32 13t32 -13t13 -32t-13 -32t-32 -13zM326.5 423q-18.5 0 -31.5 13t-13 32t13 32t31.5 13t31.5 -13t13 -32t-13 -32t-31.5 -13z" />
    <glyph glyph-name="wode" unicode="&#xe630;" 
d="M232 409q-3 0 -6 -1q3 1 7 1h-1zM972 114q0 2 1 4q-1 -1 -1 -4zM1021 658v1v0v-1zM972 658v0v1v-1zM1002 -82q-14 104 -68 190l12 -21l-4 6v1q-33 56 -80 102v0q-10 10 -21 19q-77 68 -174 99q17 10 33 22q18 13 35 29q88 89 88 214.5t-88 213.5q-87 87 -210 89h-4h-4
q-122 -2 -209 -89q-89 -88 -89 -213.5t89 -214.5q16 -16 34 -29q16 -12 34 -22q-97 -31 -175 -99q-10 -9 -21 -19q-47 -46 -80 -103q-7 -13 -14 -27q-45 -89 -49 -192q0 10 3 13.5t6 3t9.5 -3t11.5 -3.5h4h3q21 4 24 25q21 144 125 249q60 60 137 94t161 34h1q84 0 161 -34
t136 -94q105 -105 126 -249q3 -20 23 -25v0h4h4q12 2 19.5 12t6.5 22zM521 337h-2q-85 1 -153 53.5t-88 131.5q-1 2 -1 3q-7 27 -7 54.5t7 54.5q0 1 1 3q21 82 89.5 138t153.5 56h1q84 0 153 -56t90 -138q0 -2 1 -3q6 -27 6 -54.5t-6 -54.5q-1 -1 -1 -3q-21 -79 -89 -131.5
t-152 -53.5h-3z" />
    <glyph glyph-name="naozhong" unicode="&#xe631;" 
d="M177 -87q-8 0 -14 5q-6 6 -7 15t5 16l80 93l-5 4q-76 61 -117 147.5t-41 183.5q0 73 24 145l2 4l-3 2q-61 47 -61 122q0 64 45 109t109 45q65 0 110 -46l3 -4l4 2q91 47 195 47q105 0 201 -50l4 -3l3 4q46 49 113 49q64 0 109 -45t45 -108q0 -39 -18 -73t-50 -55l-4 -3
l1 -4q24 -68 24 -140q0 -97 -41.5 -183.5t-117.5 -147.5l-5 -3l79 -94q6 -6 5 -15q-2 -10 -8 -15t-15 -5t-17 7l-81 96l-4 -2q-105 -64 -225 -64q-121 0 -225 64l-4 2l-82 -97q-10 -5 -16 -5zM506 762q-105 0 -193.5 -51.5t-139.5 -140t-51 -193t51 -193t139.5 -139.5
t193 -51t193 51t140 139.5t51.5 193t-52 193t-140 140t-192 51.5zM826 762q-43 0 -73 -28l-6 -5l6 -4q87 -63 134 -158l3 -6l6 5q40 32 40 84q0 47 -32.5 79.5t-77.5 32.5zM194 762q-45 0 -77.5 -32.5t-32.5 -78.5q0 -47 34 -79l5 -6l3 7q50 96 137 155l7 4l-6 5
q-31 25 -70 25zM505 356q-9 0 -15.5 6.5t-6.5 15.5v248q0 9 6.5 15.5t15.5 6.5t15 -6.5t6 -15.5v-227h212q9 0 15.5 -6t6.5 -15t-6.5 -15.5t-15.5 -6.5h-233z" />
    <glyph glyph-name="shouye-shouye" unicode="&#xe632;" 
d="M972 375q-10 0 -17 7l-425 428q-8 8 -18 8t-18 -8l-425 -426q-7 -7 -17 -7t-16 6q-7 6 -7 15q-1 11 7 20l422 425q23 23 53.5 23t52.5 -23l425 -427q7 -7 7 -18t-9 -18q-7 -5 -15 -5zM638 -102v33h-34v61q0 38 -27 65t-65 27t-65 -27t-27 -65v-61h-34v-33h-189
q-31 0 -52.5 21.5t-21.5 51.5v415q0 11 7 17.5t17 6.5t17 -6.5t7 -17.5v-415q0 -11 7.5 -18t18.5 -7h175v45q0 58 41 99t99 41t99 -41t41 -99v-45h175q11 0 18.5 7t7.5 18v415q0 11 7 17.5t17 6.5t17 -6.5t7 -17.5v-415q0 -30 -21.5 -51.5t-52.5 -21.5h-189zM604 -102v48h48
v-48h-48zM372 -102v48h48v-48h-48z" />
    <glyph glyph-name="shalou" unicode="&#xe633;" 
d="M834 804h-644q-10 0 -17 7t-7 17t7 17t17 7h644q10 0 17 -7t7 -17q1 -10 -6 -17t-18 -7zM866 -97h-708q-10 0 -18 8t-8 18.5t8 18.5t18 8h708q11 0 19 -8t8 -18.5t-8 -18.5t-19 -8zM766 230v1q-57 99 -153 146q95 48 153 145v2q66 114 73 294h-47q-6 -166 -66 -271l-1 -1
q-35 -61 -75 -96t-91 -51l-3 -1h-1q-1 0 -2 -1t-2 -1l-1 -1l-1 -1l-2 -2v-1q-1 -1 -2 -4l-1 -1l-2 -5v-9l2 -6h1q0 -1 1 -2.5l1 -1.5v-1l2 -2v1l1 -1l1 -1q1 0 4 -2h1l3 -2q52 -16 92 -51t75 -95v-2q29 -47 48 -121q0 -2 3.5 -17t6 -31.5t2.5 -33.5q-28 26 -100.5 42
t-165.5 17v370q1 0 4 2v0l6 3h2q65 20 112 66q48 48 74 115q3 9 -1 18t-13 13q-9 3 -18 -0.5t-12 -12.5v-1q-24 -59 -63 -98q-40 -39 -92 -55h-1l-2 -1l-4 -1l-2 1l-2 1h-2q-56 19 -92 55q-40 38 -63 98q-3 9 -12 13t-17 1q-9 -4 -13 -12.5t-1 -18.5q26 -69 74 -115
q45 -45 111 -66h1l6 -3h2q0 -1 1 -1q1 -1 2 -1v-370q-86 0 -158 -13t-109 -35q3 26 13 71q18 69 47 121l1 2q35 61 75 95.5t92 50.5l3 2h1l1.5 1t2.5 1v1l2 1v1l2 1v1q0 1 2 4v1q2 3 2 6v8q0 2 -2 5v1q-2 3 -2 4v1l-2 1l-2 2l-2 -1q-1 1 -2 1.5t-2 1.5h-1h-2q-52 16 -92 51
t-75 97h-1q-60 105 -67 272h-47q7 -179 73 -295l1 -1q55 -97 153 -146q-95 -46 -153 -146l-1 -1q-63 -111 -71 -276h653q-8 168 -72 277z" />
    <glyph glyph-name="rili" unicode="&#xe634;" 
d="M193 -117q-50 0 -84.5 35t-34.5 84v701q0 49 34.5 83.5t84.5 34.5h72v64h46v-64h400v64h46v-64h73q49 0 83.5 -34.5t34.5 -83.5v-701q0 -49 -34.5 -84t-83.5 -35h-637zM120 2q0 -30 21 -51.5t52 -21.5h637q30 0 51 21.5t21 51.5v519h-782v-519zM193 775q-31 0 -52 -21
t-21 -51v-137h782v137q0 30 -21 51t-51 21h-73v-63h-46v63h-400v-63h-46v63h-72zM265 375h492v-46h-492v46zM265 182h492v-46h-492v46z" />
    <glyph glyph-name="wodeerweima" unicode="&#xe635;" 
d="M945 -116q-10 0 -10 10v364q0 5 3 8t7 3h28q4 0 7 -3t3 -8v-364q0 -4 -3 -7t-7 -3h-28zM805 -116q-4 0 -7.5 3t-3.5 7v280q0 10 11 10h28q4 0 7 -3t3 -7v-280q0 -4 -3 -7t-7 -3h-28zM665 -116q-4 0 -7.5 3t-3.5 7v280q0 10 11 10h28q4 0 7 -3t3 -7v-280q0 -4 -3 -7t-7 -3
h-28zM62 -116q-21 0 -36.5 15t-15.5 37v280q0 22 15.5 37t36.5 15h280q22 0 37 -15t15 -37v-280q0 -22 -15 -37t-37 -15h-280zM90 220q-13 0 -22.5 -9.5t-9.5 -22.5v-224q0 -13 9.5 -22.5t22.5 -9.5h224q14 0 23 9.5t9 22.5v224q0 13 -9 22.5t-23 9.5h-224zM497 -4
q-4 0 -7 3t-3 7v252q0 5 3 8t7 3h28q4 0 7 -3t3 -8v-252q0 -9 -10 -9h-28v-1zM21 360q-4 0 -7.5 3t-3.5 7v28q0 9 11 9h980q9 0 9 -9v-28q0 -4 -2.5 -7t-6.5 -3h-980zM678 500q-21 0 -36.5 15t-15.5 37v280q0 22 15.5 37t36.5 15h280q22 0 37 -15t15 -37v-280q0 -22 -15 -37
t-37 -15h-280zM706 836q-13 0 -22.5 -9.5t-9.5 -22.5v-224q0 -13 9.5 -22.5t22.5 -9.5h224q14 0 23 9.5t9 22.5v224q0 13 -9 22.5t-23 9.5h-224zM497 500q-10 0 -10 10v364q0 5 3 8t7 3h28q4 0 7 -3t3 -8v-364q0 -4 -3 -7t-7 -3h-28zM62 500q-21 0 -36.5 15t-15.5 37v280
q0 22 15.5 37t36.5 15h280q22 0 37 -15t15 -37v-280q0 -22 -15 -37t-37 -15h-280zM90 836q-13 0 -22.5 -9.5t-9.5 -22.5v-224q0 -13 9.5 -22.5t22.5 -9.5h224q14 0 23 9.5t9 22.5v224q0 13 -9 22.5t-23 9.5h-224z" />
    <glyph glyph-name="xianxingtubiao-" unicode="&#xe636;" 
d="M956 42q-6 0 -11 4l-225 166v-132q0 -16 -11 -27t-27 -11h-605q-16 0 -27 11t-11 27v627q0 16 11 27t27 11h605q16 0 27 -11t11 -27v-114l224 189q10 7 20.5 2t10.5 -17v0v-706q0 -12 -10 -17q-4 -2 -8 -2h-1v0zM77 707v-627h605v170q0 12 10.5 17t19.5 -2l226 -167v629
l-225 -189q-9 -8 -20 -2.5t-11 17.5v0v154h-605v0z" />
    <glyph glyph-name="yijianfankui" unicode="&#xe637;" horiz-adv-x="1060" 
d="M963 488q-10 0 -17 -7t-7 -17v-432q0 -20 -14 -34.5t-35 -14.5h-731q-20 0 -34.5 14.5t-14.5 34.5v705q0 20 14.5 34.5t34.5 14.5h471q10 0 17 7t7 17t-7.5 17t-16.5 7h-476q-38 0 -65 -27.5t-27 -65.5v-715q0 -39 27 -66t65 -27h741q39 0 66 27t27 66v438q0 10 -7.5 17
t-17.5 7zM968 745l-44 44q-23 23 -54 24.5t-52 -19.5l-463 -463l155 -155l464 463q21 21 19 52t-25 54zM851 586l-344 -344l-86 85l345 346zM939 674l-51 -52l-86 87l51 50q8 8 19.5 7.5t20.5 -9.5l44 -44q9 -8 9.5 -20t-7.5 -19zM355 330l-48 -175q-3 -12 6 -21.5t21 -5.5
l175 48l-36 36l-113 -31l31 113z" />
    <glyph glyph-name="zaixiankefu" unicode="&#xe638;" 
d="M484 -113h-4q-25 1 -45 17.5t-27 41.5q-8 31 6 58t44 38q13 4 27 4q23 0 42 -12t29 -32q4 -8 10 -8h3q203 34 297 219q1 0 1.5 1.5t0.5 2.5l2 6l-7 -1h-5q-1 0 -3.5 -0.5t-3.5 -0.5h-6q-45 0 -76 31.5t-31 75.5v110q0 45 31 76.5t76 31.5h6q3 0 21 -4q2 -1 5.5 -1.5
t4.5 -1.5l3 -1l6 -2l-1 7q-13 54 -44.5 104.5t-78 91.5t-110.5 66.5t-135 27.5h-10q-72 0 -137.5 -25t-113 -66t-80.5 -92t-47 -105l-2 -7l6 2q2 0 4 0.5t4 1.5l16 4q11 1 17 1q38 0 68.5 -25.5t36.5 -62.5q2 -13 2 -22v-108q0 -39 -24 -68t-62 -38q-11 -2 -22 -2
q-38 0 -68.5 25.5t-36.5 63.5q-2 14 -2 18v32v85q5 212 172 344q82 65 192 85q56 10 107 5q3 0 9 -0.5t9 -0.5q94 -10 173 -57q157 -92 205 -270q15 -51 15 -109v-113q0 -24 -11 -50q-4 -7 -5 -16q-1 -1 -1 -3t-1 -2q-35 -117 -124.5 -199.5t-208.5 -107.5q-1 0 -13.5 -2
t-19.5 -3q-6 -1 -10 -8q-10 -23 -30 -37t-45 -14zM846 499h-6q-23 -2 -38.5 -19t-15.5 -40v-111q0 -5 2 -15q5 -20 21 -33t37 -13q4 0 7 1q23 3 38 19.5t15 39.5v111q0 6 -1 14q-6 20 -22 33t-37 13zM178 499q-25 0 -42 -17.5t-17 -42.5v-109q0 -6 2 -14q5 -20 21 -33
t36 -13h7q23 2 38 19t15 40v110q0 26 -17.5 43t-42.5 17z" />
    <glyph glyph-name="zhanghaoguanli" unicode="&#xe639;" 
d="M108 -29q-42 0 -72 31.5t-30 75.5v534q0 44 30 75t72 31h805q43 0 73 -31t30 -75v-534q0 -44 -30 -75t-73 -31h-805v-1v0zM108 676q-25 0 -43 -19t-18 -45v-534q0 -26 18 -45t43 -19h805q26 0 44 19t18 45v534q0 26 -18 45t-44 19h-805zM542 505q-10 0 -17 7t-7 17t7 17
t17 7h329q10 0 17 -7t7 -17t-7 -17t-17 -7h-329zM542 385q-10 0 -17 7t-7 17t7 17t17 7h329q10 0 17 -7t7 -17t-7 -17t-17 -7h-329zM542 257q-10 0 -17 7t-7 17t7 17t17 7h278q10 0 16.5 -7t6.5 -17t-6.5 -17t-16.5 -7h-278zM56 8q-5 0 -7 1q-10 3 -14.5 12t-1.5 20
q17 59 56 105t93 72l16 8l-14 12q-30 26 -47 62.5t-17 77.5q0 75 51.5 128t123.5 53t123 -53t51 -128q0 -41 -16.5 -77.5t-46.5 -62.5l-14 -12l16 -8q51 -25 95.5 -79.5t62.5 -116.5q10 -30 1 -35q-5 -3 -6 6q-1 7 4 13q-3 -2 -6.5 -0.5t-11.5 4t-14 2.5q-10 -1 -20 -23
q-25 83 -86.5 143.5t-131.5 60.5q-75 0 -135 -46t-83 -121q0 -8 -6.5 -13t-14.5 -5v0zM297 509q-53 0 -90 -38.5t-37 -93t37 -92.5t89.5 -38t90 38t37.5 93q-1 54 -38 92.5t-89 38.5z" />
    <glyph glyph-name="zhifeiji" unicode="&#xe63a;" 
d="M597 -98h-1q-17 1 -21 16l-117 427l-428 119q-16 4 -17 21q-2 16 14 22l919 358q14 5 24 -5q11 -11 4 -24l-356 -920q-6 -14 -21 -14zM107 490l375 -105q13 -4 16 -16l103 -372l313 806zM494 689h53v-29h-53v29z" />
    <glyph glyph-name="activity_icon" unicode="&#xe692;" 
d="M1022 343q9 112 -29.5 218t-118 185.5t-185.5 118t-218 29.5v2l-38 -6q-166 -26 -283.5 -143.5t-143.5 -283.5l-6 -38h2q-9 -112 29.5 -218t118.5 -185q71 -72 166 -111t196 -39q20 0 41 2v-2l38 6q166 26 283.5 143.5t143.5 283.5l6 38h-2zM834 706q73 -73 107 -171
t23 -200q-103 -12 -201 22.5t-170.5 107t-107 171t-23.5 200.5q103 12 201 -22.5t171 -107.5zM190 62q-73 73 -107 171t-23 201q102 11 200.5 -23.5t171 -107t107 -170.5t23.5 -201q-103 -11 -201 23t-171 107v0zM834 62q-110 -111 -264 -129q31 77 25 152.5t-37.5 139.5
t-85.5 119q-72 72 -166.5 110.5t-196.5 38.5q-20 0 -39 -1q31 128 125 219.5t222 117.5q-18 -112 18.5 -218t116.5 -187q79 -79 185 -118t217 -30q-37 -152 -158 -248z" />
    <glyph glyph-name="book_icon" unicode="&#xe693;" 
d="M825 896h-626q-47 0 -80.5 -33.5t-33.5 -80.5v-796q0 -47 33.5 -80.5t80.5 -33.5h626q47 0 80.5 33.5t33.5 80.5v796q0 47 -33.5 80.5t-80.5 33.5zM626 839h114v-227l-35 45q-8 11 -22.5 11t-22.5 -11l-34 -45v227zM142 -14v796q0 24 17 40.5t40 16.5h57v-910h-57
q-23 0 -40 16.5t-17 40.5v0zM882 -14q0 -24 -17 -40.5t-40 -16.5h-512v910h256v-313v0q0 -12 8.5 -20t19.5 -8q14 0 23 11l63 84l62 -84q9 -11 23 -11q12 0 20 8t8 20v0v313h29q23 0 40 -16.5t17 -40.5v-796z" />
    <glyph glyph-name="add-friends_icon" unicode="&#xe694;" 
d="M996 71h-114v114q0 12 -8.5 20t-20 8t-20 -8t-8.5 -20v-114h-114q-12 0 -20 -8.5t-8 -20t8 -20t20 -8.5h114v-114v0q0 -11 8.5 -19.5t20 -8.5t20 8.5t8.5 19.5v0v114h114v0q11 0 19.5 8.5t8.5 20t-8.5 20t-19.5 8.5v0v0zM810 229q3 6 3 13q0 17 -16 25q-59 29 -130 44
q72 42 115 114t43 158q0 129 -92 221t-221 92t-221 -91.5t-92 -221.5q0 -86 43 -158t115 -114q-167 -35 -262 -143.5t-95 -267.5q0 -11 8.5 -19.5t20 -8.5t20 8.5t8.5 19.5q0 79 26.5 143t70 105.5t103.5 69.5t123 40t132 12q150 0 260 -54q6 -3 13 -3q17 0 25 16v0z
M256 583q0 106 75 181t181 75t181 -75t75 -181t-75 -181t-181 -75t-181 75t-75 181z" />
    <glyph glyph-name="download_icon" unicode="&#xe695;" 
d="M996 100v0q-12 0 -20.5 -8.5t-8.5 -20.5v0v-142h-910v142q0 12 -8.5 20.5t-20 8.5t-20 -8.5t-8.5 -20.5v-171v0q0 -11 8.5 -19.5t19.5 -8.5v0h968v0q11 0 19.5 8.5t8.5 19.5v0v171v0q0 12 -8.5 20.5t-19.5 8.5v0zM492 -6q8 -8 20 -8t20 8l285 285q8 8 8 19.5t-8.5 20
t-20 8.5t-20.5 -8l-236 -236v785q0 11 -8 19.5t-20 8.5t-20 -8.5t-8 -19.5v-785l-236 236q-9 8 -20.5 8t-20 -8.5t-8.5 -20t8 -19.5z" />
    <glyph glyph-name="electricity_icon" unicode="&#xe696;" 
d="M794 538q-8 17 -26 17v0h-189l179 298q4 7 4 15q0 11 -8 19.5t-20 8.5v0h-273q-19 0 -27 -18l-204 -512q-2 -5 -2 -10q0 -12 8 -20.5t20 -8.5v0h130l-157 -417q-1 -4 -1 -10q0 -11 8 -19.5t20 -8.5q13 0 22 10l512 626q6 8 6 18q0 7 -2 13v-1zM343 52l110 294q2 4 2 10
q0 11 -8.5 19.5t-19.5 8.5h-129l182 455h204l-179 -298q-4 -7 -4 -15q0 -12 8 -20t20 -8v0h179z" />
    <glyph glyph-name="emoji_icon" unicode="&#xe697;" 
d="M512 896q-104 0 -199 -40.5t-163.5 -109t-109 -163.5t-40.5 -199t40.5 -199t109 -163.5t163.5 -109t199 -40.5t199 40.5t163.5 109t109 163.5t40.5 199t-40.5 199t-109 163.5t-163.5 109t-199 40.5zM512 -71q-92 0 -176.5 36t-145.5 97t-97 145.5t-36 176.5t36 176.5
t97 145.5t145.5 97t176.5 36t176.5 -36t145.5 -97t97 -145.5t36 -176.5t-36 -176.5t-97 -145.5t-145.5 -97t-176.5 -36zM774 244q-43 -54 -112.5 -85t-149.5 -31t-149.5 31t-112.5 85q-9 11 -23 11q-11 0 -19.5 -8t-8.5 -20q0 -10 6 -18q52 -65 133.5 -101.5t173.5 -36.5
t173.5 36.5t133.5 101.5q6 8 6 18q0 11 -8.5 19.5t-20.5 8.5q-13 0 -22 -10v-1zM228 497.5q0 -23.5 16.5 -40t40 -16.5t40 16.5t16.5 40t-16.5 40.5t-40 17t-40 -17t-16.5 -40.5zM683 497.5q0 -23.5 16.5 -40t40 -16.5t40 16.5t16.5 40t-16.5 40.5t-40 17t-40 -17
t-16.5 -40.5z" />
    <glyph glyph-name="idea_icon" unicode="&#xe698;" 
d="M734 799q-53 48 -121 69.5t-139 13.5q-110 -12 -192.5 -91t-98.5 -187q-16 -103 28.5 -196.5t133.5 -145.5v-267q0 -46 32.5 -78.5t78.5 -32.5h112q46 0 78.5 32.5t32.5 78.5v267q76 45 121 121.5t45 167.5q0 72 -29.5 136.5t-81.5 111.5v0zM638 304q-15 -8 -15 -25v-284
q0 -23 -16 -39t-39 -16h-112q-23 0 -39 16t-16 39v284v0q0 17 -15 24q-81 42 -121.5 122t-26.5 170q14 91 82.5 156.5t159.5 75.5q15 2 32 2q106 0 185 -71q44 -39 68.5 -93t24.5 -114q0 -79 -41 -145.5t-111 -101.5zM568 51h-112q-11 0 -19 -8.5t-8 -20t8 -19.5t19 -8h112
q11 0 19 8t8 19.5t-8 20t-19 8.5zM631 619l-119 -119l-119 119q-8 8 -20 8q-11 0 -19 -8t-8 -20q0 -11 7 -19l131 -131v-315q0 -12 8 -20t19.5 -8t20 8t8.5 20v0v315l130 131q8 8 8 19q0 12 -8 20t-20 8q-11 0 -19 -8z" />
    <glyph glyph-name="female_icon" unicode="&#xe699;" 
d="M901 495q0 106 -52 195.5t-142 141.5t-195 52t-195 -52t-142 -141.5t-52 -195.5q0 -101 48 -187.5t131 -139.5t182 -60v-57h-194q-12 0 -20 -8.5t-8 -20t8 -19.5t20 -8h194v-83q0 -12 8 -20t20 -8t20 8t8 20v83h194q12 0 20 8t8 19.5t-8 20t-20 8.5h-194v57q99 7 182 60
t131 139.5t48 187.5zM179 495.5q0 90.5 44.5 167t121.5 121t167 44.5t167 -44.5t121.5 -121t44.5 -167t-44.5 -167.5t-121.5 -121.5t-167 -44.5t-167 44.5t-121.5 121.5t-44.5 167.5z" />
    <glyph glyph-name="live_icon" unicode="&#xe69a;" 
d="M929 690h-289l64 126q2 6 2 12q0 12 -8 20t-19 8q-17 0 -25 -15l-76 -151h-132l-76 151q-8 15 -25 15q-11 0 -19 -8t-8 -20q0 -6 3 -12l63 -126h-289q-34 0 -58.5 -24.5t-24.5 -59.5v-611q0 -34 24.5 -58.5t58.5 -24.5h834q34 0 58.5 24.5t24.5 58.5v611q0 35 -24.5 59.5
t-58.5 24.5zM956 -5q0 -11 -8 -19.5t-19 -8.5h-834q-11 0 -19 8.5t-8 19.5v611q0 12 8 20t19 8h834q11 0 19 -8t8 -20v-611zM666 324l-223 139q-6 4 -14 4q-12 0 -20 -8t-8 -19v0v-278v0q0 -12 8 -20t20 -8q8 0 15 4l222 139q13 8 13 23.5t-13 23.5v0zM456 212v177l142 -88z
" />
    <glyph glyph-name="male_icon" unicode="&#xe69b;" 
d="M1010 867q-7 17 -26 17h-265q-12 0 -20 -8t-8 -19.5t8 -20t20 -8.5h198l-223 -223q-117 102 -271 102q-111 0 -206 -55t-150 -150t-55 -206.5t55 -206.5t150 -150t206.5 -55t206.5 55t150 150t55 206q0 154 -102 271l223 223v-198v0q0 -12 8.5 -20t20 -8t19.5 8t8 20v0
v265q0 6 -2 11v0zM423.5 -60q-96.5 0 -178.5 47.5t-129.5 129.5t-47.5 178.5t47.5 178.5t129.5 129.5t178.5 47.5t178.5 -47.5t129.5 -129.5t47.5 -178.5t-47.5 -178.5t-129.5 -129.5t-178.5 -47.5z" />
    <glyph glyph-name="list_icon" unicode="&#xe69c;" 
d="M206 634h778q12 0 20 8t8 19.5t-8 20t-20 8.5h-778q-11 0 -19 -8.5t-8 -20t8 -19.5t19 -8zM12 662q0 -17 12 -29.5t29.5 -12.5t29.5 12.5t12 29.5t-12 29t-29.5 12t-29.5 -12t-12 -29zM984 412h-778q-11 0 -19 -8t-8 -20t8 -20t19 -8h778q12 0 20 8t8 20t-8 20t-20 8z
M12 384q0 -17 12 -29.5t29.5 -12.5t29.5 12.5t12 29.5t-12 29.5t-29.5 12.5t-29.5 -12.5t-12 -29.5zM984 134h-778q-11 0 -19 -8t-8 -19.5t8 -20t19 -8.5h778q12 0 20 8.5t8 20t-8 19.5t-20 8zM12 106q0 -17 12 -29t29.5 -12t29.5 12t12 29t-12 29.5t-29.5 12.5t-29.5 -12.5
t-12 -29.5z" />
    <glyph glyph-name="search_icon" unicode="&#xe69d;" 
d="M1004 -69l-167 167v0v0q57 64 88 144.5t31 169.5q0 96 -37 183.5t-100.5 150.5t-151 100.5t-183.5 37.5t-183.5 -37.5t-150.5 -100.5t-100.5 -150.5t-37.5 -183.5t37.5 -183.5t100.5 -151t150.5 -100.5t183.5 -37q89 0 169.5 31t144.5 88v0v0l167 -167q8 -8 19.5 -8
t19.5 8t8 19.5t-8 19.5zM484 -5q-113 0 -209 56t-151.5 152t-55.5 209t55.5 209t151.5 151.5t209 55.5t209 -55.5t152 -151.5t56 -209t-56 -209t-152 -152t-209 -56z" />
    <glyph glyph-name="keyboard_icon" unicode="&#xe69e;" 
d="M929 690h-834q-34 0 -58.5 -24.5t-24.5 -59.5v-444q0 -35 24.5 -59.5t58.5 -24.5h834q34 0 58.5 24.5t24.5 59.5v444q0 35 -24.5 59.5t-58.5 24.5zM956 162q0 -12 -8 -20t-19 -8h-834q-11 0 -19 8t-8 20v444q0 12 8 20t19 8h834q11 0 19 -8t8 -20v-444zM845 273h-666
q-12 0 -20 -8t-8 -19.5t8 -20t20 -8.5h666q12 0 20 8.5t8 20t-8 19.5t-20 8zM179 356h83q12 0 20 8t8 20t-8 20t-20 8h-83q-12 0 -20 -8t-8 -20t8 -20t20 -8zM373 356h83q12 0 20 8t8 20t-8 20t-20 8h-83q-11 0 -19.5 -8t-8.5 -20t8.5 -20t19.5 -8zM568 356h83q11 0 19.5 8
t8.5 20t-8.5 20t-19.5 8h-83q-12 0 -20 -8t-8 -20t8 -20t20 -8zM845 412h-83v0q-12 0 -20 -8t-8 -20t8 -20t20 -8v0h83q12 0 20 8t8 20t-8 20t-20 8zM179 495h83q12 0 20 8t8 19.5t-8 20t-20 8.5h-83q-12 0 -20 -8.5t-8 -20t8 -19.5t20 -8zM373 495h83q12 0 20 8t8 19.5
t-8 20t-20 8.5h-83q-11 0 -19.5 -8.5t-8.5 -20t8.5 -19.5t19.5 -8zM568 495h83q11 0 19.5 8t8.5 19.5t-8.5 20t-19.5 8.5h-83q-12 0 -20 -8.5t-8 -20t8 -19.5t20 -8zM845 551h-83q-12 0 -20 -8.5t-8 -20t8 -19.5t20 -8h83q12 0 20 8t8 19.5t-8 20t-20 8.5z" />
    <glyph glyph-name="member_icon" unicode="&#xe69f;" 
d="M1008 510l-222 361q-9 13 -24 13v0h-500v0q-15 0 -24 -13l-222 -361q-4 -7 -4 -15q0 -10 6 -17l472 -584q9 -10 22 -10t22 10l472 584q6 7 6 17q0 8 -4 15v0zM512 -44l-438 541l204 331h469l203 -331zM256 490q-9 10 -22 10q-11 0 -19.5 -8t-8.5 -20q0 -10 7 -17
l277 -343q9 -11 22 -11t22 11l277 343q7 7 7 17q0 12 -8.5 20t-19.5 8q-13 0 -22 -10l-256 -317z" />
    <glyph glyph-name="water_icon" unicode="&#xe6a0;" 
d="M535 872q-7 12 -23 12t-23 -12q-15 -23 -38.5 -60t-75.5 -127t-92 -168.5t-72.5 -164t-32.5 -134.5q0 -91 45 -168t122 -121.5t167 -44.5t167 44.5t122 121.5t45 168q0 49 -32.5 134.5t-72.5 164t-92 168.5t-75.5 127t-38.5 60zM512 -60q-115 0 -196.5 81.5t-81.5 196.5
q0 55 52.5 174t109.5 219t116 194q59 -94 116 -194t109.5 -219t52.5 -174q0 -115 -81.5 -196.5t-196.5 -81.5zM707 245v0q-12 0 -20 -8t-8 -19v0q0 -69 -49 -118t-118 -49q-12 0 -20 -8t-8 -20t8 -20t20 -8q92 0 157 65.5t65 157.5v0q0 11 -8 19t-19 8v0z" />
    <glyph glyph-name="upload_icon" unicode="&#xe6a1;" 
d="M984 106v0q-11 0 -19.5 -8t-8.5 -20v0v-138h-888v138q0 12 -8.5 20t-20 8t-19.5 -8t-8 -20v-166v0q0 -12 8 -20t20 -8v0h944v0q12 0 20 8t8 20v0v166v0q0 12 -8 20t-20 8v0zM492 876q8 8 20 8t20 -8l277 -278q9 -8 9 -19.5t-8.5 -19.5t-20 -8t-19.5 8l-230 230v-766
q0 -12 -8 -20t-20 -8t-20 8t-8 20v766l-230 -230q-8 -8 -19.5 -8t-20 8t-8.5 19.5t9 19.5z" />
    <glyph glyph-name="computer_icon" unicode="&#xe6a2;" horiz-adv-x="1189" 
d="M988 806h-816q-34 0 -58 -24t-24 -58v-544q0 -34 24 -58t58 -24h381v-81h-136q-12 0 -19.5 -8t-7.5 -19.5t7.5 -19.5t19.5 -8h326q12 0 20 8t8 19.5t-8 19.5t-20 8h-136v81h381q34 0 58 24t24 58v544q0 34 -24 58t-58 24zM172 751h816q12 0 20 -8t8 -19v-462h-871v462
q0 11 8 19t19 8v0zM988 153h-816q-11 0 -19 8t-8 19v27h871v-27q0 -11 -8 -19t-20 -8z" />
    <glyph glyph-name="e-mail_icon" unicode="&#xe6a3;" horiz-adv-x="1417" 
d="M1167 648q1 1 1 3q0 5 -2 9q-7 41 -38.5 68t-73.5 27h-799q-42 0 -73.5 -27t-38.5 -68q-1 -4 -1 -9v-3t-0.5 -3.5t-0.5 -3.5v-514q0 -47 33.5 -80.5t80.5 -33.5h799q47 0 80.5 33.5t33.5 80.5v514q0 1 -0.5 3.5t-0.5 3.5zM255 698h799q36 0 51 -33l-450 -266l-451 266
q15 33 51 33v0zM1054 70h-799q-23 0 -40 17t-17 40v475l442 -260v-1q5 -2 11 -3l-4 1v0q3 -1 6 -1h2v0h1h1q3 0 6 1h1q6 2 10 6l-5 -3v0l442 260v-475q0 -23 -16.5 -40t-40.5 -17v0z" />
    <glyph glyph-name="education_icon" unicode="&#xe6a4;" horiz-adv-x="1475" 
d="M1166 607l-459 143q-15 5 -31.5 5t-32.5 -5l-458 -143q-20 -6 -32 -21.5t-12 -35t12 -35t32 -21.5l105 -33q-1 -3 -1 -6l1 -305q0 -30 23 -54.5t63 -36.5l25 -8q129 -38 274.5 -38t273.5 38l25 8q40 12 63.5 36.5t23.5 54.5v308q0 4 -2 7l107 29q20 6 31.5 21.5t11.5 35
t-11.5 35t-31.5 21.5zM1002 150q0 -9 -12 -18.5t-33 -15.5l-25 -8q-120 -36 -256.5 -36t-257.5 36l-25 8q-20 6 -32 15.5t-12 18.5v293l295 -92q15 -4 31.5 -4t31.5 4l295 92v-293zM689 408q-6 -2 -13.5 -2t-14.5 2l-459 142l460 143q6 2 13 2v0q7 0 14 -2l460 -142z
M1120 458v0q-12 0 -20.5 -8.5t-8.5 -21.5v0v-237q0 -12 8.5 -21t21 -9t21 9t8.5 21v0v237v0q0 13 -8.5 21.5t-21.5 8.5v0z" />
    <glyph glyph-name="credentials_icon" unicode="&#xe6a5;" horiz-adv-x="1417" 
d="M1054 755h-799q-47 0 -80.5 -33.5t-33.5 -80.5v-514q0 -47 33.5 -80.5t80.5 -33.5h799q47 0 80.5 33.5t33.5 80.5v514q0 47 -33.5 80.5t-80.5 33.5zM1111 127q0 -23 -16.5 -40t-40.5 -17h-799q-23 0 -40 17t-17 40v514q0 23 17 40t40 17h799q24 0 40.5 -17t16.5 -40v-514
zM946 361q51 44 51 109q0 59 -42 100.5t-101 41.5t-100.5 -41.5t-41.5 -100.5q0 -65 50 -109q-48 -25 -77.5 -72.5t-29.5 -104.5q0 -11 8 -19.5t20 -8.5t20.5 8.5t8.5 19.5q0 59 41.5 101t100.5 42t101 -42t42 -101v0q0 -11 8.5 -19.5t20 -8.5t20 8.5t8.5 19.5v0
q0 57 -29.5 104.5t-78.5 72.5zM769 469.5q0 35.5 25 60.5t60.5 25t60.5 -25t25 -60.5t-25 -60.5t-60.5 -25t-60.5 25t-25 60.5zM626 555h-342q-12 0 -20.5 -8.5t-8.5 -20t8.5 -20t20.5 -8.5h342q12 0 20.5 8.5t8.5 20t-8.5 20t-20.5 8.5zM598 413h-314q-12 0 -20.5 -8.5
t-8.5 -20.5t8.5 -20.5t20.5 -8.5h314q11 0 19.5 8.5t8.5 20.5t-8.5 20.5t-19.5 8.5zM512 270h-228q-12 0 -20.5 -8.5t-8.5 -20t8.5 -20t20.5 -8.5h228q12 0 20.5 8.5t8.5 20t-8.5 20t-20.5 8.5z" />
    <glyph glyph-name="decoration_icon" unicode="&#xe6a6;" 
d="M512 696q-83 0 -141.5 -58.5t-58.5 -141t58.5 -141t141.5 -58.5t141.5 58.5t58.5 141t-58.5 141t-141.5 58.5zM512 354q-59 0 -101 42t-42 101t42 100.5t101 41.5t101 -41.5t42 -100.5t-42 -101t-101 -42zM789 198q-4 7 -11 10q63 53 98 128t35 161q0 108 -53.5 200
t-145.5 145.5t-200 53.5t-200 -53.5t-145.5 -145.5t-53.5 -200q0 -85 33.5 -161t94.5 -132q-6 -5 -9 -12l-111 -192q-4 -6 -4 -14q0 -12 8.5 -20t20.5 -8q3 0 7 1l89 24l24 -90q6 -21 28 -21q16 0 24 14l126 218q32 -7 68 -7t70 7l124 -218q8 -14 24 -14q22 0 28 21l24 90
l89 -24q4 -1 7 -1q12 0 20.5 8t8.5 20q0 8 -4 15zM303 -26l-13 51q-6 21 -28 21q-4 0 -7 -1l-50 -14l79 138q79 -56 176 -68zM170 496.5q0 92.5 45.5 171.5t124.5 125t172 46t172 -46t124.5 -125t45.5 -171.5t-45.5 -171.5t-124.5 -125t-172 -46t-172 46t-124.5 125
t-45.5 171.5zM769 45q-3 1 -7 1q-22 0 -28 -21l-13 -51l-83 144q94 32 161 102l20 -189z" />
    <glyph glyph-name="heavy-rain_icon" unicode="&#xe6a7;" horiz-adv-x="1181" 
d="M952 633h-14q-32 116 -129 189.5t-218 73.5v0q-103 0 -189 -53.5t-132 -141.5q-2 -2 -7 -2q-109 0 -186 -77t-77 -185.5t77 -185.5t186 -77h689q95 0 162.5 67.5t67.5 162.5t-67.5 162t-162.5 67zM952 239h-689q-82 0 -139.5 58t-57.5 139.5t57.5 139t139.5 57.5
q12 0 24 -1v0q8 0 15 2q12 7 21 18q-6 -6 -6 -4l2 5v-2q1 2 2 7l-2 -6q36 80 109 129t163 49v0q106 0 188 -67.5t102 -171.5v-1v-0.5v-0.5q2 -8 7 -14l1.5 -1t3.5 -2t3 -2q-2 0 2.5 -2.5t10.5 -3.5q-2 1 0 0h3h4h2l1 1v0v0q16 3 33 3q68 0 116 -48.5t48 -116t-48 -116
t-116 -48.5v0zM394 104q-8 4 -17 4q-18 0 -28 -16l-98 -171q-5 -7 -5 -16q0 -14 9.5 -23.5t23.5 -9.5q19 0 28 16l99 171q4 7 4 16q0 19 -16 29v0zM657 104q-8 4 -17 4q-19 0 -28 -16l-99 -171q-4 -7 -4 -16q0 -14 9.5 -23.5t23.5 -9.5q18 0 28 16l99 171q4 7 4 16
q0 19 -16 29v0zM919 104q-7 4 -16 4q-19 0 -29 -16l-98 -171q-5 -7 -5 -16q0 -14 10 -23.5t23 -9.5q19 0 29 16l98 171q5 7 5 16q0 19 -17 29v0z" />
    <glyph glyph-name="fine_icon" unicode="&#xe6a8;" 
d="M512 697q-129 0 -221 -92t-92 -221t92 -221t221 -92t221 92t92 221t-92 221t-221 92zM512 128q-106 0 -181 75t-75 181t75 181t181 75t181 -75t75 -181t-75 -181t-181 -75zM171 384v0q0 12 -8.5 20t-20.5 8v0h-114q-11 0 -19.5 -8t-8.5 -20t8.5 -20t19.5 -8h114v0
q12 0 20.5 8t8.5 20v0zM996 412h-114v0q-12 0 -20.5 -8t-8.5 -20t8.5 -20t20.5 -8v0h114q11 0 19.5 8t8.5 20t-8.5 20t-19.5 8zM230 143l-80 -81q-8 -8 -8 -20t8 -20t20 -8t20 8l81 80q8 9 8 20.5t-8.5 20t-20 8.5t-20.5 -8zM773 617v0q12 0 21 8l80 81q8 8 8 20t-8 20
t-20 8t-20 -8l-81 -80q-8 -9 -8 -20.5t8.5 -20t19.5 -8.5zM512 43v0q-12 0 -20 -8.5t-8 -20.5v0v-114v0q0 -11 8 -19.5t20 -8.5t20 8.5t8 19.5v0v114v0q0 12 -8 20.5t-20 8.5v0v0zM512 725v0q12 0 20 8.5t8 20.5v0v114q0 11 -8 19.5t-20 8.5t-20 -8.5t-8 -19.5v-114v0
q0 -12 8 -20.5t20 -8.5v0zM794 143q-9 8 -20.5 8t-20 -8.5t-8.5 -20t8 -20.5l81 -80q8 -8 20 -8t20 8t8 20t-8 20zM230 625q9 -8 20.5 -8t20 8.5t8.5 20t-8 20.5l-81 80q-8 8 -20 8t-20 -8t-8 -20t8 -20z" />
    <glyph glyph-name="intense-fall_icon" unicode="&#xe6a9;" horiz-adv-x="1181" 
d="M952 633h-14q-32 116 -129 189.5t-218 73.5v0q-103 0 -189 -53.5t-132 -141.5q-2 -2 -7 -2q-109 0 -186 -77t-77 -185.5t77 -185.5t186 -77h689q95 0 162.5 67.5t67.5 162.5t-67.5 162t-162.5 67zM952 239h-689q-82 0 -139.5 58t-57.5 139.5t57.5 139t139.5 57.5
q12 0 24 -1v0h1h5q5 1 10 3v0q8 4 13 10l-3 -2q6 6 8 14l-2 -5q36 80 109 129t163 49v0q106 0 188 -67.5t102 -171.5v-1v0v0v-1q2 -8 7 -14h1q4 -3 7 -5h-1l7 -4q5 -2 12 -3l-5 1h1h2h4h2l2 1h-1h1q15 3 32 3q68 0 116 -48.5t48 -116t-48 -116t-116 -48.5v0zM312 104
q-8 4 -17 4q-18 0 -28 -16l-98 -171q-5 -7 -5 -16q0 -14 9.5 -23.5t23.5 -9.5q19 0 28 16l99 171q4 7 4 16q0 19 -16 29v0zM542 104q-8 4 -17 4q-19 0 -28 -16l-99 -171q-4 -7 -4 -16q0 -14 9.5 -23.5t23.5 -9.5q18 0 28 16l99 171q4 7 4 16q0 19 -16 29v0zM771 104
q-7 4 -16 4q-19 0 -28 -16l-99 -171q-4 -7 -4 -16q0 -14 9.5 -23.5t23.5 -9.5q18 0 28 16l98 171q5 7 5 16q0 19 -16 29h-1zM1001 104q-7 4 -16 4q-19 0 -29 -16l-98 -171q-4 -7 -4 -16q0 -14 9.5 -23.5t22.5 -9.5q19 0 29 16l98 171q5 7 5 16q0 19 -17 29v0z" />
    <glyph glyph-name="heavy-snow_icon" unicode="&#xe6aa;" horiz-adv-x="1204" 
d="M970 628h-13q-34 118 -132.5 193t-222.5 75v0q-105 0 -192.5 -54.5t-134.5 -144.5q-2 -2 -7 -2q-111 0 -189.5 -78.5t-78.5 -189t78.5 -189t189.5 -78.5h702q97 0 166 68.5t69 165.5t-69 165.5t-166 68.5zM970 227h-702q-83 0 -142 58.5t-59 142t59 142t142 58.5
q13 0 25 -1v0v0h6q5 1 9 2l1 1q8 4 13 11l-2 -3q5 6 7 15l-1 -6q36 82 110.5 132t165.5 50v0q109 0 192.5 -69t103.5 -175v-1v0v0l1 -1q1 -8 7 -14v0q4 -4 8 -5l-2 -1q2 -1 7 -3t13 -3l-5 1h1h2l4 -1l2 1h1v0v0q16 3 34 3q69 0 118 -49t49 -118t-49 -118t-119 -49v0zM402 6
h-34v33q0 14 -9.5 24t-23.5 10t-24 -10t-10 -24v-33h-33q-14 0 -24 -10t-10 -23.5t10 -23.5t24 -10h33v-34q0 -13 10 -23t24 -10t23.5 10t9.5 23v34h34q13 0 23 10t10 23.5t-10 23.5t-23 10v0zM669 6h-33v33q0 14 -10 24t-23.5 10t-23.5 -10t-10 -24v-33h-34q-13 0 -23 -10
t-10 -23.5t10 -23.5t23 -10h34v-34q0 -13 10 -23t23.5 -10t23.5 10t10 23v34h33q14 0 24 10t10 23.5t-10 23.5t-24 10v0zM937 6h-33v33q0 14 -10 24t-24 10t-23.5 -10t-9.5 -24v-33h-34q-14 0 -23.5 -10t-9.5 -23.5t9.5 -23.5t23.5 -10h34v-34v0q0 -13 9.5 -23t23.5 -10
t24 10t10 23v0v34h33q14 0 23.5 10t9.5 23.5t-9.5 23.5t-23.5 10v0z" />
    <glyph glyph-name="membership-card_icon" unicode="&#xe6ab;" horiz-adv-x="1417" 
d="M1054 755h-799q-47 0 -80.5 -33.5t-33.5 -80.5v-514q0 -47 33.5 -80.5t80.5 -33.5h799q47 0 80.5 33.5t33.5 80.5v514q0 47 -33.5 80.5t-80.5 33.5zM255 698h799q24 0 40.5 -17t16.5 -40v-114h-913v114q0 23 17 40t40 17zM1054 70h-799q-23 0 -40 17t-17 40v343h913v-343
q0 -23 -16.5 -40t-40.5 -17v0zM546 397q-3 1 -6 1q-9 0 -13 -9l-72 -193l-72 193q-4 9 -14 9q-5 0 -9.5 -4t-4.5 -10q0 -3 1 -5l86 -228q3 -9 13 -9t13 9l86 228q1 2 1 5q0 10 -9 13v0zM655 398v0q-6 0 -10.5 -4t-4.5 -10v0v-228q0 -6 4.5 -10t10.5 -4t10 4t4 10v228v0
q0 6 -4 10t-10 4v0zM883 398h-114v0q-6 0 -10.5 -4t-4.5 -10v0v-228q0 -6 4.5 -10t10.5 -4t10 4t4 10v100h100q29 0 50 20.5t21 50t-21 50.5t-50 21zM883 284h-100v86h100v0q18 0 30.5 -12.5t12.5 -30.5t-12.5 -30.5t-30.5 -12.5v0v0z" />
    <glyph glyph-name="medal_icon" unicode="&#xe6ac;" horiz-adv-x="1152" 
d="M773 363l-116 17l-52 105q-8 16 -29 16t-29 -16l-52 -105l-116 -17q-11 -2 -19 -11t-8 -21q0 -13 10 -23l84 -82l-20 -115q-1 -3 -1 -6q0 -13 9.5 -22.5t22.5 -9.5q8 0 15 4l104 55l104 -55q7 -4 15 -4q13 0 22.5 9.5t9.5 22.5q0 3 -1 6l-20 115l84 82q10 10 10 23
q0 12 -8 21t-19 11v0zM650 260q-10 -9 -10 -23q0 -2 1 -5l11 -68l-61 32q-7 4 -15 4t-15 -4l-61 -32l12 68v5q0 14 -10 23l-49 49l68 10q18 2 25 18l30 61l31 -62q8 -16 25 -17l67 -10zM1097 663l-163 -164q-55 92 -145 146l354 196q9 10 9 23t-9.5 22.5t-22.5 9.5t-23 -9
l-268 -269q-113 86 -253 86t-252 -86l-269 269q-10 9 -23 9t-22.5 -9.5t-9.5 -22.5t9 -23l267 -266q-74 -77 -101 -179l-120 267q-10 9 -23 9t-22.5 -9.5t-9.5 -22.5t9 -23l180 -179q-29 -70 -29 -150q0 -113 56 -209t151.5 -151.5t208.5 -55.5t208.5 55.5t151.5 151.5
t56 209q0 80 -30 153l181 176q9 10 9 23t-9.5 22.5t-22.5 9.5t-23 -9v0zM576 -64q-95 0 -176.5 47t-128.5 128.5t-47 176.5t47 176.5t128.5 128.5t176.5 47t176.5 -47t128.5 -128.5t47 -176.5t-47 -176.5t-128.5 -128.5t-176.5 -47z" />
    <glyph glyph-name="moderate-rain_icon" unicode="&#xe6ad;" horiz-adv-x="1181" 
d="M952 633h-14q-32 116 -129 189.5t-218 73.5v0q-103 0 -189 -53.5t-132 -141.5q-2 -2 -7 -2q-109 0 -186 -77t-77 -185.5t77 -185.5t186 -77h689q95 0 162.5 67.5t67.5 162.5t-67.5 162t-162.5 67zM952 239h-689q-82 0 -139.5 58t-57.5 139.5t57.5 139t139.5 57.5
q12 0 24 -1v0h1h5q5 1 9 3h1q8 4 13 10v2q2 3 3 5v0q2 2 2 5l-1 -5q35 80 108 129t163 49v0q106 0 188 -67.5t102 -171.5v-1v0v0v-1q2 -8 7 -14q6 -4 9 -5h-2q1 -2 6 -4t13 -3l-5 1h3h1h3h2l2 1h-1h1q15 3 32 3q68 0 116 -48.5t48 -116t-48 -116t-116 -48.5v0zM525 104
q-7 4 -16 4q-19 0 -29 -16l-98 -171q-4 -7 -4 -16q0 -14 9.5 -23.5t22.5 -9.5q19 0 29 16l98 171q5 7 5 16q0 19 -17 29v0zM788 104q-8 4 -17 4q-19 0 -28 -16l-99 -171q-4 -7 -4 -16q0 -14 9.5 -23.5t23.5 -9.5q19 0 28 16l99 171q4 7 4 16q0 19 -16 29v0z" />
    <glyph glyph-name="scouther_icon" unicode="&#xe6ae;" horiz-adv-x="1204" 
d="M970 628h-13q-34 118 -132.5 193t-222.5 75v0q-105 0 -192.5 -54.5t-134.5 -144.5q-2 -2 -7 -2q-111 0 -189.5 -78.5t-78.5 -189t78.5 -189t189.5 -78.5h702q97 0 166 68.5t69 165.5t-69 165.5t-166 68.5zM970 227h-702q-83 0 -142 58.5t-59 142t59 142t142 58.5
q13 0 25 -1v0h1h5q5 1 9 2l1 1q8 4 13 11v1l3 6l1 -1q1 2 2 6l-2 -6q36 82 110.5 132t165.5 50v0q109 0 192.5 -69t103.5 -175v-1v0v0l1 -1q1 -8 7 -14v0q4 -3 8 -5h-2l7 -4q5 -2 13 -3q2930 -540 6237.5 -864t6706.5 -391l-12939 1256v0v0v0q16 3 34 3q69 0 118 -49
t49 -118t-49 -118t-119 -49v0zM669 6h-33v33q0 14 -10 24t-23.5 10t-23.5 -10t-10 -24v-33h-34q-13 0 -23 -10t-10 -23.5t10 -23.5t23 -10h34v-34q0 -13 10 -23t23.5 -10t23.5 10t10 23v34h33q14 0 24 10t10 23.5t-10 23.5t-24 10v0z" />
    <glyph glyph-name="pan_icon" unicode="&#xe6af;" 
d="M999 697l-174 174q-25 25 -60 25t-60 -25l-671 -671l-0.5 -0.5l-0.5 -0.5q-5 -6 -7 -14l1 5q-1 -4 -2 -10l-25 -277v-3q0 -11 8.5 -19.5t19.5 -8.5h3l279 26q6 0 10 2h-1q7 3 12 10l-3 -4l533 533h1l137 138q25 25 25 60t-25 60zM587 673l214 -214l-493 -493l-214 214z
M60 -68l17 185l168 -168zM959 617l-118 -118l-213 214l117 118q8 8 20 8t20 -8l174 -174q8 -8 8 -20t-8 -20zM333 177v0q12 0 20 8l254 254q9 9 9 20.5t-8.5 20t-20 8.5t-20.5 -9l-254 -254q-8 -8 -8 -20t8 -20t20 -8v0z" />
    <glyph glyph-name="printer_icon" unicode="&#xe6b0;" 
d="M939 441h-114v370q0 35 -25 60t-60 25h-456q-35 0 -60 -25t-25 -60v-370h-114q-35 0 -60 -25t-25 -60v-228q0 -35 25 -60t60 -25h114v-86q0 -35 25 -60t60 -25h456q35 0 60 25t25 60v86h114q35 0 60 25t25 60v228q0 35 -25 60t-60 25zM256 811q0 11 8.5 19.5t19.5 8.5
h456q11 0 19.5 -8.5t8.5 -19.5v-370h-512v370zM768 -43q0 -11 -8.5 -19.5t-19.5 -8.5h-456q-11 0 -19.5 8.5t-8.5 19.5v256h512v-256zM967 128q0 -12 -8.5 -20t-19.5 -8h-114v142v0q0 12 -8.5 20t-20.5 8v0h-568v0q-12 0 -20.5 -8t-8.5 -20v0v-142h-114q-11 0 -19.5 8
t-8.5 20v228q0 11 8.5 19.5t19.5 8.5h854q11 0 19.5 -8.5t8.5 -19.5v-228z" />
    <glyph glyph-name="overcast-sky_icon" unicode="&#xe6b1;" horiz-adv-x="1675" 
d="M1119 485q-2 0 -14 -1q-34 120 -133 195.5t-224 75.5v0q-106 0 -194 -55t-135 -146q-3 -1 -8 -1q-112 0 -191 -79.5t-79 -191t79 -190.5t191 -79h708q97 0 166.5 69.5t69.5 167t-69.5 166.5t-166.5 69zM1119 81h-708q-84 0 -143 59t-59 143t59 143t143 59q13 0 25 -2v1h1
h5l10 2v1q8 3 14 10l-3 -2q6 6 8 15l-2 -6q36 83 111.5 133t167.5 50v0q109 0 193 -69.5t105 -176.5v0v0q0 -1 0.5 -1.5l0.5 -0.5q2 -8 7 -14l1 -1t3 -2l4 -2h-2l7 -4l2 -0.5t6.5 -1.5t8.5 -1l1 1v0v0h1q15 4 33 4q69 0 118.5 -49.5t49.5 -119.5t-49.5 -119t-118.5 -49z" />
    <glyph glyph-name="moderate-snow_icon" unicode="&#xe6b2;" horiz-adv-x="1204" 
d="M970 628h-13q-34 118 -132.5 193t-222.5 75v0q-105 0 -192.5 -54.5t-134.5 -144.5q-2 -2 -7 -2q-111 0 -189.5 -78.5t-78.5 -189t78.5 -189t189.5 -78.5h702q97 0 166 68.5t69 165.5t-69 165.5t-166 68.5zM970 227h-702q-83 0 -142 58.5t-59 142t59 142t142 58.5
q13 0 25 -1v0v0h6q5 1 9 2l1 1q8 4 13 11v1l3 6v-2q1 1 2 7l-1 -6q36 82 110.5 132t165.5 50v0q109 0 192.5 -69t103.5 -175v-1v0v0v-1q2 -8 8 -14v0q4 -4 8 -5l-2 -1q2 -1 7 -3q0 -1 9 -2h-1h3l4 -1l2 1h1v0v0q16 3 34 3q69 0 118 -49t49 -118t-49 -118t-119 -49v0zM535 6
h-33v33q0 14 -10 24t-23.5 10t-23.5 -10t-10 -24v-33h-33q-14 0 -24 -10t-10 -23.5t10 -23.5t24 -10h33v-34q0 -13 10 -23t23.5 -10t23.5 10t10 23v34h33q14 0 24 10t10 23.5t-10 23.5t-24 10v0zM803 6h-33v33q0 14 -10 24t-24 10t-23.5 -10t-9.5 -24v-33h-34
q-14 0 -23.5 -10t-9.5 -23.5t9.5 -23.5t23.5 -10h34v-34q0 -13 9.5 -23t23.5 -10t24 10t10 23v34h33q14 0 24 10t10 23.5t-10 23.5t-24 10v0z" />
    </font>
</defs>
</svg>
