<?xml version="1.0" standalone="no"?><!DOCTYPE svg PUBLIC "-//W3C//DTD SVG 1.1//EN" "http://www.w3.org/Graphics/SVG/1.1/DTD/svg11.dtd"><svg t="1497432086880" class="icon" style="" viewBox="0 0 1024 1024" version="1.1" xmlns="http://www.w3.org/2000/svg" p-id="2629" xmlns:xlink="http://www.w3.org/1999/xlink" width="200" height="200"><defs><style type="text/css"></style></defs><path d="M739.5584 284.44672h-42.65984V56.89344A56.96512 56.96512 0 0 0 640.00512 0h-256A56.96512 56.96512 0 0 0 327.11168 56.89344v227.55328H284.45184A85.42208 85.42208 0 0 0 199.12192 369.77664v568.89344A85.42208 85.42208 0 0 0 284.45184 1024h455.10656a85.42208 85.42208 0 0 0 85.32992-85.32992V369.77664a85.42208 85.42208 0 0 0-85.32992-85.32992zM384.00512 56.89344h256v227.55328h-256z m384 881.77664a28.4672 28.4672 0 0 1-28.44672 28.44672H284.45184a28.4672 28.4672 0 0 1-28.44672-28.44672V369.77664a28.4672 28.4672 0 0 1 28.44672-28.44672h455.10656a28.4672 28.4672 0 0 1 28.44672 28.44672z" p-id="2630"></path><path d="M568.86784 142.22336H455.0912a28.44672 28.44672 0 1 0 0 56.89344h113.77664a28.44672 28.44672 0 1 0 0-56.89344zM654.19776 483.55328A28.42624 28.42624 0 0 0 625.75104 512v284.44672a28.44672 28.44672 0 1 0 56.89344 0V512a28.42624 28.42624 0 0 0-28.44672-28.44672z" p-id="2631"></path></svg>